<?xml version="1.0" encoding="iso-8859-1"?>
<!-- Generator: Adobe Illustrator 18.1.1, SVG Export Plug-In . SVG Version: 6.00 Build 0)  -->
<svg version="1.1" id="Layer_1" xmlns="http://www.w3.org/2000/svg" xmlns:xlink="http://www.w3.org/1999/xlink" x="0px" y="0px"
	 viewBox="0 0 400 100" style="enable-background:new 0 0 400 100;" xml:space="preserve">
<g>
	<rect x="0" y="0" style="fill:transparent;" width="100" height="100"/>
	<path style="fill:#fff;" d="M67.671,64.896c-0.776-2.552-7.048-6.007-9.963-7.28c-0.199-0.086-0.425-0.082-0.619,0.012
		l-7.071,3.418l-6.337-3.403c-0.19-0.102-0.417-0.116-0.62-0.038c-2.539,0.988-9.954,4.456-10.696,7.323
		c-0.53,2.047-0.741,3.051-0.75,3.092c-0.01,0.05-0.016,0.101-0.016,0.152c0,1.006,0.506,1.482,0.929,1.704
		c0.624,0.326,1.373,0.299,2.144,0.284c0.165-0.003,0.335-0.006,0.505-0.006h29.645c0.223,0,0.443,0.008,0.656,0.016
		c0.217,0.008,0.427,0.015,0.627,0.015c0.567,0,2.295,0,2.295-1.913C68.4,67.493,68.329,67.06,67.671,64.896z M66.106,68.701
		c-0.183,0-0.375-0.007-0.574-0.014c-0.23-0.008-0.469-0.016-0.709-0.016H35.178c-0.18,0-0.358-0.003-0.532,0
		c-0.158,0.003-0.314,0-0.465,0c-0.002,0-0.003,0-0.005,0c-0.204,0-0.729,0.005-0.96-0.115c-0.046-0.024-0.121-0.058-0.133-0.313
		c0.06-0.275,0.28-1.256,0.717-2.945c0.433-1.673,5.706-4.666,9.482-6.187l6.367,3.419c0.208,0.113,0.459,0.118,0.673,0.014
		l7.102-3.433c4.174,1.876,8.413,4.849,8.828,6.215c0.633,2.083,0.665,2.383,0.665,2.943C66.918,68.61,66.918,68.701,66.106,68.701z
		"/>
	<path style="fill:#fff;" d="M42.219,48.895c0.4,0.999,0.856,1.715,1.335,2.469c0.135,0.213,0.273,0.429,0.411,0.656
		c0.481,0.789,0.969,1.38,1.512,1.828c-0.037,0.73-0.128,1.628-0.292,2.295c-0.098,0.397,0.145,0.799,0.543,0.897
		c0.397,0.098,0.799-0.145,0.897-0.543c0.221-0.901,0.325-2.133,0.348-2.985c0.007-0.25-0.113-0.487-0.318-0.629
		c-0.506-0.35-0.958-0.87-1.424-1.635c-0.144-0.235-0.286-0.459-0.426-0.679c-0.514-0.807-0.958-1.505-1.335-2.553
		c-0.098-0.273-0.383-0.465-0.671-0.49c-0.072-0.006-0.268-0.123-0.373-0.314c-0.748-1.373-1.069-3.471-0.929-3.899
		c0.019-0.012,0.102-0.041,0.283-0.038c0.211,0.016,0.403-0.073,0.548-0.219c0.144-0.145,0.222-0.344,0.215-0.549
		c-0.157-4.252,1.408-6.537,2.749-7.706c0.246-0.215,0.323-0.565,0.189-0.863c-0.009-0.02-0.019-0.04-0.029-0.058
		c0.632-0.425,1.694-0.397,1.707-0.394l0.041-0.74l0.61-0.42c-0.049-0.112,0.05-0.383,0.19-0.63c0.42,0.351,0.982,0.603,1.508,0.748
		c1.522,0.422,2.627,0.856,3.312,1.158c3.159,1.252,4.878,4.498,4.715,8.908c-0.007,0.199,0.066,0.392,0.202,0.537
		c0.136,0.144,0.325,0.228,0.524,0.232c0.137,0.003,0.206,0.03,0.202,0.017c0.159,0.452-0.161,2.553-0.909,3.925
		c-0.106,0.193-0.298,0.313-0.371,0.324c-0.271,0.038-0.499,0.221-0.593,0.477c-0.383,1.036-0.849,1.766-1.343,2.539
		c-0.15,0.234-0.301,0.472-0.454,0.722c-0.449,0.738-0.858,1.236-1.286,1.567c-0.183,0.141-0.29,0.36-0.288,0.592
		c0.005,0.675,0.06,1.98,0.377,3.143c0.09,0.329,0.389,0.546,0.715,0.546c0.065,0,0.13-0.009,0.196-0.026
		c0.395-0.108,0.628-0.516,0.52-0.91c-0.231-0.844-0.299-1.822-0.318-2.418c0.463-0.422,0.899-0.979,1.35-1.72
		c0.147-0.241,0.293-0.47,0.438-0.696c0.463-0.725,0.941-1.473,1.351-2.481c0.407-0.184,0.777-0.524,1.007-0.946
		c0.863-1.583,1.361-4.124,1.006-5.129c-0.143-0.405-0.434-0.702-0.834-0.864c-0.007-4.695-2.095-8.301-5.636-9.703
		c-0.704-0.31-1.88-0.774-3.488-1.219c-0.707-0.196-1.047-0.516-1.082-0.576c-0.033-0.198-0.144-0.375-0.309-0.49
		c-0.165-0.115-0.371-0.158-0.567-0.117c-0.647,0.129-1.213,0.996-1.436,1.547c-0.092,0.229-0.151,0.453-0.174,0.667
		c-0.981,0.138-2.354,0.61-2.735,1.994c-0.043,0.125-0.057,0.259-0.035,0.389c-1.284,1.437-2.509,3.776-2.515,7.469
		c-0.449,0.151-0.775,0.46-0.929,0.899c-0.356,1.003,0.142,3.542,1.005,5.126C41.372,48.373,41.777,48.725,42.219,48.895z"/>
</g>
<g>
	<rect x="200" y="0" style="fill:transparent;" width="100" height="100"/>
	<path style="fill:#fff;" d="M266.154,46.2l-5.604,3.821v-7.72c0-0.416-0.337-0.754-0.754-0.754h-19.593
		c-0.417,0-0.754,0.337-0.754,0.754v7.72l-5.604-3.821c-0.344-0.234-0.813-0.146-1.047,0.198c-0.235,0.344-0.146,0.813,0.198,1.047
		l14.088,9.605c0.818,0.557,1.866,0.836,2.915,0.836c1.049,0,2.097-0.279,2.915-0.836l14.088-9.605
		c0.344-0.234,0.433-0.703,0.198-1.047C266.967,46.054,266.498,45.966,266.154,46.2z M252.066,55.805
		c-1.12,0.764-3.011,0.763-4.131,0l-7.093-4.836c0.067-0.113,0.116-0.238,0.116-0.379v-7.536h18.086v7.536
		c0,0.141,0.049,0.266,0.116,0.379L252.066,55.805z"/>
	<path style="fill:#fff;" d="M269.2,43.309l-16.351-12.578c-0.767-0.59-1.778-0.914-2.849-0.914
		c-1.071,0-2.082,0.325-2.848,0.914l-16.359,12.584c-0.65,0.499-1.14,1.521-1.14,2.377v20.723c0,2.077,1.69,3.768,3.768,3.768
		h33.157c2.077,0,3.768-1.69,3.768-3.768V45.692C270.346,44.836,269.853,43.812,269.2,43.309z M268.839,66.415
		c0,1.247-1.014,2.261-2.261,2.261h-33.157c-1.247,0-2.261-1.014-2.261-2.261V45.692c0-0.383,0.272-0.968,0.55-1.182l16.359-12.585
		c0.497-0.382,1.2-0.602,1.93-0.602c0.729,0,1.433,0.219,1.93,0.602l16.351,12.578c0.281,0.217,0.558,0.805,0.558,1.189V66.415z"/>
	<path style="fill:#fff;" d="M255.275,46.069h-10.55c-0.417,0-0.754,0.337-0.754,0.754c0,0.416,0.337,0.754,0.754,0.754h10.55
		c0.416,0,0.754-0.337,0.754-0.754C256.029,46.406,255.691,46.069,255.275,46.069z"/>
	<path style="fill:#fff;" d="M255.275,49.083h-10.55c-0.417,0-0.754,0.337-0.754,0.754s0.337,0.754,0.754,0.754h10.55
		c0.416,0,0.754-0.337,0.754-0.754S255.691,49.083,255.275,49.083z"/>
</g>
<g>
	<rect x="100" y="0" style="fill:transparent;" width="100" height="100"/>
	<path style="fill:#fff;" d="M170.434,63.215c-0.109-0.737-0.587-1.387-1.463-1.985l-9.028-6.177
		c-0.466-0.317-1.008-0.486-1.568-0.486c-0.872,0-1.688,0.411-2.188,1.105l-2.343,3.317c-0.184,0.257-0.227,0.574-0.239,0.879
		c-0.896,0.132-3.494,0.051-7.756-4.21c-4.122-4.116-6.074-7.143-5.821-9.012c0.046-0.022,0.079-0.067,0.12-0.098
		c0.215-0.06,0.412-0.133,0.572-0.257l3.235-2.451c1.155-0.871,1.381-2.565,0.502-3.781l-6.47-8.823
		c-1.245-1.695-2.709-1.873-4.28-0.522c-0.994,0.852-2.643,2.909-3.326,4.147c-0.375,0.663-0.531,1.347-0.464,2.036
		c-0.239,0.991-0.76,3.912,0.108,7.986c1.179,5.537,4.368,10.853,9.478,15.8c8.544,8.267,16.049,9.502,19.762,9.503h0
		c2.184,0,3.706-0.401,4.408-0.696c0.652,0.028,1.297-0.156,1.925-0.533c1.217-0.721,3.217-2.437,4.035-3.463
		C170.28,64.692,170.541,63.946,170.434,63.215z M168.443,64.537c-0.705,0.884-2.567,2.481-3.625,3.106
		c-0.143,0.086-0.285,0.148-0.425,0.2c-1.03-0.447-2.843-1.395-3.386-2.074c-0.263-0.329-0.744-0.382-1.072-0.119
		c-0.329,0.264-0.383,0.744-0.119,1.073c0.479,0.599,1.396,1.197,2.233,1.662c-0.669,0.145-1.599,0.273-2.784,0.273h0
		c-3.482-0.001-10.543-1.18-18.701-9.074c-11.634-11.263-9.424-21.336-9.134-22.447c0.026-0.099,0.031-0.203,0.016-0.304
		c-0.06-0.404,0.026-0.804,0.267-1.229c0.597-1.081,2.132-2.999,2.988-3.733c0.394-0.339,0.744-0.518,1.012-0.518
		c0.115,0,0.466,0,1.043,0.785l6.467,8.819c0.393,0.543,0.308,1.29-0.189,1.665l-3.201,2.428c-0.013,0.006-0.035,0.013-0.057,0.02
		c-0.844-0.647-1.998-1.624-2.362-2.182c-0.23-0.353-0.704-0.452-1.056-0.223c-0.353,0.23-0.452,0.703-0.222,1.056
		c0.493,0.756,1.684,1.756,2.446,2.354c-0.608,2.486,1.323,5.804,6.187,10.661c3.876,3.875,6.701,4.688,8.389,4.688
		c0.74,0,1.294-0.165,1.566-0.319c0.204-0.116,0.344-0.32,0.378-0.552c0.015-0.104,0.021-0.253,0.022-0.418
		c0.001-0.092,0.003-0.249,0.014-0.336l2.29-3.241c0.348-0.484,1.126-0.605,1.653-0.246l9.027,6.176
		c0.498,0.341,0.772,0.659,0.814,0.948C168.966,63.72,168.805,64.089,168.443,64.537z"/>
	<path style="fill:#fff;" d="M149.129,38.607c5.901,1.802,10.519,6.396,12.352,12.288c0.102,0.327,0.403,0.536,0.728,0.536
		c0.075,0,0.152-0.011,0.227-0.034c0.402-0.125,0.627-0.553,0.502-0.955c-1.984-6.375-6.979-11.345-13.364-13.294
		c-0.403-0.127-0.829,0.104-0.953,0.507C148.499,38.058,148.726,38.484,149.129,38.607z"/>
	<path style="fill:#fff;" d="M150.177,32.953c8.848,2.092,15.614,9.223,17.234,18.166c0.067,0.368,0.388,0.627,0.75,0.627
		c0.045,0,0.091-0.004,0.137-0.012c0.415-0.075,0.69-0.472,0.615-0.887c-1.729-9.541-8.945-17.148-18.385-19.379
		c-0.409-0.093-0.821,0.157-0.918,0.567C149.513,32.445,149.766,32.856,150.177,32.953z"/>
</g>
<g>
	<path style="fill:#fff;" d="m40.125 11.384c-.012-.212-.187-.38-.401-.38-.017 0-.034.001-.051.003h.002c-.401-.498-1.312-.867-1.701-1.075-1.653-.917-3.079-1.913-4.394-3.036l.036.03c-3.029-2.512-6.143-5.152-9.843-6.601-1.858-.726-3.74-.076-5.553.449-2.103.614-4.269.971-6.372 1.605s-4.281 1.36-6.42 1.982c-1.128.325-2.255.642-3.399.915-.702.169-1.449.217-1.946.803-.037.04-.059.093-.059.152 0 .02.003.04.008.058v-.002c-.008.016-.013.034-.013.054s.005.038.014.055v-.001l.048.076c-.201 1.027.425 1.894 1.248 2.468.678.473 1.444.887 2.167 1.348.518.325 1.075.947 1.721 1.055-.126.105-.24.212-.347.327l-.002.002c-.558.61-.626 1.633-.726 2.408-.151.986-.236 2.123-.236 3.28 0 .209.003.418.008.626l-.001-.031c.048 1.172.229 2.408.173 3.611-.138.118-.258.249-.361.395l-.004.007c-.189.235-.304.537-.304.866 0 .627.417 1.157.988 1.327l.01.003h.06c-.718 1.164-1.251 2.526-1.518 3.98l-.011.073c-.185 1.027-.473 2.941.449 3.712.05.048.118.078.193.078.151 0 .273-.12.277-.27v0c0-.578-.209-1.144-.233-1.733-.001-.042-.001-.092-.001-.142 0-.693.081-1.366.234-2.012l-.012.059c.135-.644.312-1.206.537-1.744l-.023.062c-.116.602-.225 1.204-.325 1.786-.205 1.14-.369 2.616.401 3.579.132.165.365 0 .377-.157.048-.666-.116-1.328-.12-2.006.027-.792.137-1.545.321-2.268l-.016.074.024-.112c-.064 1.148-.301 2.512.072 3.567.027.081.102.138.191.138s.163-.057.19-.137v-.001c.063-.205.112-.447.135-.695l.001-.015c.007.34.078.662.203.956l-.006-.017c.027.044.075.073.13.073s.103-.029.13-.073v-.001c.53-.927.377-2.383.401-3.419s-.072-2.343-.598-3.326l.1.144c.356.565.619 1.227.749 1.936l.005.035c.317 1.513.157 3.122.345 4.655.004.094.081.169.176.169.062 0 .117-.032.148-.081v-.001c.486-.662.353-1.453.281-2.231-.084-.907-.068-1.806-.237-2.708-.08-.421-.53-1.954-1.164-2.54.138-.18.234-.399.268-.639l.001-.007c.088-.642-.401-1.689-1.091-1.886.257-1.89.068-3.832.152-5.73.044-.999.177-1.874.899-2.6l.092-.08h.024c.018.047.047.086.084.116l0 0c .602.494 1.204.971 1.842 1.444.181.754-.072 1.962-.12 2.52-.065.596-.102 1.286-.102 1.986 0 .376.011.749.032 1.119l-.002-.051c.092 1.428.1 3.046 1.204 4.081 1.204 1.099 3.126 1.605 4.634 2.099 1.665.535 3.598.907 5.596 1.039l.074.004c3.976.273 7.584-.903 11.083-2.712 1.102-.52 1.868-1.588 1.95-2.843l.001-.01c.037-.463.058-1.001.058-1.545 0-.647-.03-1.287-.088-1.918l.006.081c-.036-.851 0-1.705 0-2.556q.682-.181 1.372-.341c1.545-.361 3.066-.851 4.602-1.244 1.12-.289 1.276-1.176 1.28-2.147.003-.039.005-.085.005-.131 0-.076-.005-.15-.014-.223l.001.009zm-35.491 2.744c.042.008.09.012.138.012s.097-.004.143-.013l-.005.001c.118-.023.22-.052.319-.089l-.014.005c0 .036 0 .072 0 .108-.048.373-.08.742-.1 1.116l-.257.084c-.108.024-.203.06-.291.107l.006-.003c-.038.024-.07.049-.101.077l.001-.001c.024-.453.084-.931.16-1.404zm-.24 2.323c0-.253.028-.51.048-.77h.02c-.052 0 0 .04.032.048.034.016.073.029.114.036h.003c.035.005.075.007.116.007.084 0 .166-.011.243-.033l-.006.002.124-.028c0 .437 0 .879 0 1.316-.106.007-.204.031-.295.07l.006-.002-.385.157-.044.024c.012-.269.012-.542.024-.827zm.048 3.359c0-.225 0-.453 0-.678v0c .061.015.131.024.203.024.154 0 .298-.04.423-.111l-.004.002c-.022.289-.034.627-.034.967s.013.678.037 1.012l-.003-.045c-.092.017-.174.045-.25.083l.005-.002c-.055.026-.097.073-.116.131v.002c-.123.034-.229.078-.329.133l.008-.004c.039-.394.061-.852.061-1.316 0-.065 0-.13-.001-.195v.01zm.634-1.104c-.236.03-.45.093-.647.186l.013-.006c-.028-.429-.028-.831-.052-1.288h.04c.054.013.115.02.179.02.094 0 .184-.016.268-.046l-.006.002c.08-.02.149-.046.214-.079l-.006.003c0 .136 0 .273 0 .401.012.293.008.558 0 .823zm-.907 4.495c-.048-.108-.076-.233-.076-.365 0-.245.096-.467.253-.63l0 0c .152-.182.343-.326.56-.421l.01-.004c-.084.185-.16.377-.245.554-.136.309-.353.586-.502.879zm1.537 5.489c0-.502-.028-.999-.02-1.457 0-.321 0-.634 0-.947.062.433.097.932.097 1.44 0 .038 0 .077-.001.115v-.006c-.016.253-.044.558-.076.855zm.188-5.863c-.047.24-.195.438-.397.552l-.004.002c.056-.104.104-.209.157-.301.105-.176.19-.379.242-.595l.003-.015c.011.057.017.123.017.19 0 .059-.005.117-.014.173l.001-.006zm-.216-.85v0c-.019.011-.036.026-.048.044l0 0c-.181.277-.309.602-.473.891-.123.177-.231.379-.314.594l-.007.02c-.096-.002-.189-.015-.277-.038l.008.002-.12-.044c.214-.222.382-.49.489-.787l.005-.015c.137-.272.243-.587.302-.918l.003-.021h.084c.145.056.266.15.352.271l.002.002zm-.317-8.427c-.128.032-.261.108-.373.144-.085.033-.185.057-.288.068h-.005c.032-.181.06-.357.096-.538.045-.248.115-.469.208-.676l-.007.018q.313.044.626.072l.245.028c-.206.248-.376.537-.495.85l-.007.021zm.891-1.288c-.169 0-.337 0-.51-.028s-.373-.02-.562-.02c.348-.472.803-.845 1.331-1.087l.021-.009.032.028c.238.124.515.224.805.285l.021.004.116.032c-.481.207-.896.47-1.262.787l.006-.005zm.854-1.428c.333-.148.674-.281 1.015-.401.008.009.019.014.032.014s.024-.005.032-.014l0 0 .08-.028c.04.046.08.088.123.127l.001.001c.155.115.335.21.528.277l.014.004.233.08c-.309.092-.618.189-.919.297-.174-.083-.376-.148-.587-.186l-.015-.002c-.169-.068-.353-.124-.538-.169zm12.21-1.806c-.359.025-.684.064-1.003.121l.056-.008c-.166-.095-.36-.182-.562-.25l-.024-.007c-.202-.11-.376-.244-.525-.4l-.001-.001.65-.04c.352-.055.768-.093 1.19-.104h.014c.006.086.042.163.096.221l0 0c-.01.038-.015.082-.015.127 0 .131.047.251.124.344l-.001-.001zm-1.89.125l.189.12-.622.112-.802.124c-.176-.144-.377-.266-.594-.359l-.016-.006c-.205-.116-.401-.245-.594-.361.309-.06.614-.116.923-.169s.646-.084.971-.108c.116.271.306.491.544.643l.006.003zm-2.178.373l.165.108-1.525.241c-.208-.174-.446-.32-.704-.43l-.019-.007c-.1-.056-.217-.136-.337-.213l1.697-.349c.007.015.015.029.024.04l0 0c .204.232.433.433.686.602zm-2.332.341l.209.136-.827.144c-.01-.024-.027-.043-.048-.056h-.001c-.262-.141-.568-.238-.892-.272l-.011-.001c-.204-.05-.375-.105-.541-.17l.028.01c.469-.108.939-.209 1.404-.305.196.203.423.373.676.503l.014.007zm-1.54.457c-.461.096-.927.197-1.384.313-.275-.139-.594-.24-.931-.287l-.016-.002c-.104-.038-.194-.084-.278-.14l.005.003c.469-.148.943-.281 1.424-.401.338.241.739.418 1.172.506l.02.003zm11.949 15.697c-.667.078-1.439.122-2.222.122-.657 0-1.307-.031-1.948-.093l.082.006c-1.888-.182-3.621-.554-5.274-1.1l.17.049c-1.432-.445-3.579-.975-4.446-2.315-.469-.726-.401-1.782-.506-2.608-.054-.538-.085-1.163-.085-1.795 0-.34.009-.677.026-1.012l-.002.047c.103-.768.17-1.67.184-2.585v-.019l1.493 1.103c-.483.388-.915.772-1.326 1.178l.002-.002c-.012.013-.02.03-.02.05 0 .04.032.072.072.072.013 0 .025-.004.036-.01l0 0c .398-.242.741-.521 1.041-.84l.002-.003c.112-.108.229-.221.337-.341l.257.189.136.104c-.818.571-1.508 1.259-2.065 2.048l-.018.026c-.007.013-.012.028-.012.044 0 .049.04.088.088.088.016 0 .031-.004.044-.012l0 0c .523-.387.983-.801 1.402-1.253l.006-.006q.401-.401.803-.754l.546.401c-1.011.666-2.323 1.364-2.58 2.508-.001.006-.002.013-.002.02 0 .047.038.084.084.084.023 0 .043-.009.059-.024l0 0c .52-.537 1.062-1.042 1.628-1.518l.033-.027c.361-.273.718-.542 1.051-.843l.461.325c-1.168.71-2.379 1.605-3.037 2.741-.056.1.06.233.161.16.572-.432 1.079-.87 1.555-1.338l-.002.002c.502-.446 1.05-.877 1.623-1.274l.058-.038.289.185c-1.332.939-2.704 2.006-3.387 3.495-.044.096.076.209.156.12 1.106-1.222 2.272-2.336 3.515-3.362l.056-.045.594.345c-.721.462-1.347.945-1.928 1.478l.01-.009c-.746.662-1.681 1.42-2.038 2.383-.036.096.096.201.177.136.71-.642 1.364-1.297 1.985-1.983l.021-.024c.65-.622 1.336-1.228 2.046-1.79l.441.309c-.662.453-1.239.912-1.782 1.408l.012-.011c-.73.646-1.629 1.36-2.099 2.227-.01.017-.016.037-.016.058 0 .064.052.116.116.116.02 0 .04-.005.056-.015h-.001c.803-.433 1.404-1.204 2.054-1.834s1.272-1.204 1.906-1.778l.642.425c-.349.518-1.164 1.007-1.545 1.352-.803.73-1.83 1.348-2.283 2.375-.036.084.048.221.144.144.943-.718 1.802-1.577 2.676-2.379.496-.378.929-.8 1.305-1.27l.011-.015c.116.072.233.14.349.201-.62.664-1.265 1.279-1.945 1.855l-.033.027c-.626.562-1.424 1.204-1.673 2.042-.003.011-.005.024-.005.038 0 .084.068.152.152.152.041 0 .078-.016.105-.042l0 0c .702-.594 1.28-1.384 1.958-2.006.636-.574 1.203-1.199 1.705-1.876l.024-.034c.286.136.617.236.966.283l.017.002c-.544.672-1.113 1.274-1.724 1.83l-.013.012c-.654.618-1.477 1.164-1.978 1.918-.084.128.076.269.201.201.863-.477 1.605-1.304 2.303-2.006.598-.569 1.12-1.211 1.553-1.913l.024-.041h.024c.438-.017.853-.091 1.246-.214l-.034.009c-1.502 1.199-2.799 2.565-3.891 4.088l-.042.061c-.08.12.08.289.205.205.859-.606 1.493-1.505 2.195-2.279s1.581-1.509 2.287-2.331c.377-.132.746-.269 1.091-.365l.329-.096-.04.032-.851.722c-.638.57-1.276 1.136-1.906 1.713-1.059.983-2.239 1.974-2.997 3.21-.06.1.068.181.148.116 1.316-1.055 2.436-2.408 3.667-3.551.622-.582 1.24-1.172 1.85-1.766.185-.181.51-.421.75-.682l.851-.269c-.532.515-1.024 1.061-1.478 1.638l-.026.035c-1.272 1.553-2.929 2.861-4.013 4.558-.011.02-.018.043-.018.069 0 .078.063.14.14.14.024 0 .047-.006.067-.017h-.001c1.436-.955 2.512-2.572 3.639-3.86.802-.927 1.521-1.93 2.408-2.809.887-.297 1.762-.618 2.636-.947-1.007 1.184-2.223 2.175-3.29 3.306-1.123 1.204-2.488 2.584-3.11 4.129-.056.14.144.237.241.14.601-.673 1.188-1.405 1.736-2.168l.054-.079c.61-.762 1.268-1.485 1.926-2.207.963-1.055 2.143-1.986 2.809-3.262l1.473-.566c-.566.758-1.035 1.637-1.605 2.279-.923 1.055-1.918 2.05-2.861 3.09-.847.927-1.886 1.962-2.319 3.162-.06.169.169.273.285.165.835-.766 1.485-1.778 2.235-2.628.855-.967 1.749-1.898 2.608-2.861.549-.624 1.057-1.314 1.501-2.046l.036-.064c.314-.546.617-1.004.943-1.444l-.028.04q1.055-.401 2.111-.803l.401-.112c-.5.309-.921.694-1.26 1.144l-.008.012c-.698.802-1.34 1.681-2.054 2.496-.891 1.015-1.709 2.087-2.532 3.154s-1.958 2.171-2.54 3.411c-.005.015-.008.032-.008.049 0 .002 0 .005 0 .007v0zm1.368-.232c-.245.052-.49.1-.734.14.66-.649 1.256-1.361 1.778-2.126l.032-.049c.863-1.123 1.717-2.251 2.604-3.354.622-.774 1.288-1.497 1.862-2.311.514-.726 1.035-1.645 1.794-2.151 0 .578.02 1.156.024 1.733-1.116 1.304-2.227 2.616-3.346 3.916s-2.512 2.52-3.326 4.013c-.225.08-.453.136-.686.189zm6.87-3.05c-.308.351-.687.631-1.115.819l-.02.008c.35-.293.656-.62.92-.98l.011-.015c.273-.333.803-1.055.457-1.477-.028-.029-.068-.047-.112-.047-.03 0-.058.008-.082.023h.001c-.142.114-.248.269-.299.447l-.002.006c-.168.307-.365.57-.594.803l0 0c-.313.353-.947.742-.991 1.248 0 .102.083.185.185.185v0h .08l-.329.152q-.578.273-1.156.534c.181-.205.349-.401.53-.626.538-.626 1.087-1.24 1.605-1.878s1.352-1.408 1.18-2.259c-.018-.055-.069-.095-.13-.095-.048 0-.09.025-.114.062v.001c-.49.967-1.384 1.806-2.099 2.616s-1.693 1.605-2.006 2.624c-.425.173-.855.333-1.292.477 1.091-.987 2.006-2.247 2.953-3.346 1.047-1.173 2.009-2.469 2.851-3.847l.066-.117c0 .766 0 1.537 0 2.299.012.807.04 1.713-.498 2.387zm5.673-10.168c-2.989 1.204-6.143 2.006-9.229 2.809-2.692.722-5.393 1.348-8.001 2.335-.666.253-1.332.506-2.006.746-.2.075-.432.128-.673.148l-.01.001c-.005-.09-.041-.171-.097-.233l0 0c-.422-.402-.884-.771-1.375-1.1l-.037-.024c-.669-.519-1.422-1.018-2.211-1.461l-.092-.048c-1.011-.606-1.946-1.316-2.913-1.986-.883-.61-1.761-1.428-2.72-1.91.301-.124.606-.229.899-.321 1.452-.459 3.214-.862 5.019-1.131l.197-.024c1.745-.293 3.828-.357 5.489-1.063-.071.056-.117.143-.117.24 0 .005 0 .009 0 .014v-.001c0 .001 0 .003 0 .004 0 .126.069.237.171.296l.002.001c.429.189.967 0 1.376-.156.493-.142.893-.472 1.123-.905l.005-.01c.006-.023.01-.05.01-.078 0-.125-.072-.234-.176-.287l-.002-.001c-.267-.132-.576-.236-.902-.294l-.021-.003c-.017-.004-.036-.006-.056-.006s-.039.002-.058.006h.002c-.031-.04-.062-.075-.096-.108l0 0c-.201-.203-.48-.328-.788-.328-.233 0-.449.072-.628.194l.004-.002c-.634-.185-1.368.044-2.006.048-1.339.074-2.595.286-3.799.623l.124-.03c-2.271.522-4.578.859-6.725 1.814l-.301.136c-1.027-.774-2.171-1.408-3.254-2.099-1.019-.61-1.926-1.453-2.961-2.03.457-.373 1.204-.401 1.741-.53.762-.165 1.521-.361 2.271-.566 1.605-.437 3.162-.907 4.723-1.4 2.945-.931 5.918-1.605 8.9-2.375 1.485-.401 3.05-1.083 4.61-.782s2.905 1.276 4.237 2.054c2.556 1.505 4.711 3.491 7.026 5.325.919.73 1.93 1.316 2.877 2.006.746.542 1.693.782 2.359 1.441.152.156-1.697.967-1.91 1.051zm-16.916-3.936c-.116.07-.249.125-.392.159l-.009.002c-.032.009-.069.015-.108.015-.095 0-.182-.033-.25-.088l.001.001c-.044-.042-.075-.097-.088-.159v-.002l.08-.048c.041-.027.076-.056.108-.088l0 0 .092-.052.096-.024h.177l.136.044.06.032.056.036.044.044v.032s0 0 0 0l-.032.032c.1.008.032.064.028.064zm.3.445c.147-.083.26-.21.323-.364l.002-.005c.076.04.157.076.233.112-.16.109-.346.196-.544.253l-.014.003z"/><path style="fill:#fff;" d="m20.793 2.408c-1.573 1.023-3.539 1.284-5.244 1.982-2.357.956-4.283 1.885-6.144 2.916l.289-.147c-.06.032 0 .14.048.116 2.123-.803 4.113-1.918 6.207-2.785 1.637-.678 3.439-.911 4.883-2.006.032-.032.008-.108-.04-.076z"/><path style="fill:#fff;" d="m23.967 2.893c-1.715.438-3.185.955-4.593 1.584l.18-.072c-1.73.677-3.217 1.459-4.602 2.382l.087-.055c-.025.018-.041.048-.041.081 0 .055.045.1.1.1.015 0 .029-.003.042-.009h-.001c1.44-.626 2.809-1.42 4.245-2.066 1.481-.682 3.058-1.276 4.61-1.846.021-.007.035-.027.035-.049 0-.029-.023-.052-.052-.052-.004 0-.008 0-.012.001l0 0z"/><path style="fill:#fff;" d="m25.612 4.141c-1.605.935-3.391 1.493-4.943 2.592-.08.056-.032.213.072.169 1.015-.401 1.954-.951 2.929-1.441.666-.333 1.569-.57 2.074-1.156.015-.018.023-.042.023-.067 0-.06-.049-.108-.108-.108-.017 0-.034.004-.048.011z"/><path style="fill:#fff;" d="m26.724 5.593c-.923.803-2.448.766-3.21 1.729-.029.023-.048.058-.048.098 0 .069.056.124.124.124.029 0 .055-.01.076-.026l0 0c .606-.325 1.204-.614 1.842-.883.539-.191.984-.536 1.294-.982l.006-.009c.012-.028-.048-.084-.084-.052z"/><path style="fill:#fff;" d="m28.991 6.845c-1.363.678-2.481 1.319-3.56 2.014l.145-.088c-1.196.685-2.229 1.425-3.181 2.255l.023-.02c-.092.084.028.237.132.173 1.095-.658 2.163-1.356 3.25-2.006q.915-.562 1.818-1.14c.301-.193.598-.401.895-.59l.285-.213c.038-.024.063-.065.063-.112 0-.022-.005-.043-.015-.061v.001c.124 0 .092 0 .225-.056s.012-.181-.08-.157z"/><path style="fill:#fff;" d="m31.177 7.953c-1.541 1.087-3.334 1.83-4.963 2.785-1.946 1.14-3.944 2.283-5.682 3.74-.104.088.028.245.14.185 2.074-1.164 4.049-2.512 6.095-3.724.887-.526 1.762-1.055 2.684-1.517.734-.306 1.345-.784 1.802-1.386l.008-.011c.036-.036-.032-.104-.084-.072z"/><path style="fill:#fff;" d="m32.859 9.438c-.768.355-1.427.743-2.042 1.188l.035-.024c-.726.447-1.356.931-1.933 1.471l.007-.006c-.029.029-.046.069-.046.113 0 .089.072.161.16.161.029 0 .056-.008.079-.021h-.001c.747-.392 1.392-.829 1.982-1.329l-.015.013c.634-.465 1.264-.943 1.862-1.453.056-.06-.044-.14-.088-.112z"/>
</g>
</svg>
