<svg id="svg884" height="513.98932" viewBox="0 0 189.75307 513.98932" width="189.75307" xmlns="http://www.w3.org/2000/svg"><defs id="defs888"><clipPath id="clipPath910"><path id="path908" d="m0 540h720v-540h-720z"/></clipPath></defs><g id="g892" transform="matrix(1.3333333 0 0 -1.3333333 -383.19079 616.63758)"><path id="main_area" d="m408.8789 403.7422-.491-2.667.027-1.187.464-.962-.491-.26-.098-.418.045-.57-.027-.749-2.942-3.461-1.89.251-.598 1.738-.285 1.917-.928.928-.517.338-.963 2.381-1.418 2.123-.313.598.545 3.129 2.639 2.845 3.076 1.731 1.865-.18 1.399-1.32.615-.775.286-.983-.099-1.506-.187-.953-.044-.829zm18.868 15.702-.464 1.239-1.116 9.56.26 1.319-3.156 1.321v1.498l.9 1.47.937 1.971-.259 2.89-1.916 1.167-.339 4.718-2.355 1.623-.589.803 2.818 3.986-3.236 2.201 1.864.856.649.696 1.393 1.035.185 1.319.276.571.134 1.623.438.624-.097.544-1.295-1.551-1.683-3.363-1.374-1.534-1.008-.615-1.168-.516-1.213-.339-1.115-.133-1.471-.384-3.209-3.363-1.685-1.346-2.561-.571-.748-.748.258-1.836v-.029l-.053-.41-.491.41v.029h-.026l-1.062.774-1.524 2.408-.492.588-.979-.098-.57-.954-.493-1.372-.783-1.375-.642-2.192-.205-4.95-.446-2.558-.722-1.686-1.58-2.818-.41-1.526-2.593-.213-4.032-1.729-4.761-1.25-1.115.162-.776 1.034-.597 1.193-.83 1.008-.953.777-.91.41h-1.035l-3.129-1.034-.598.052-1.185.312-.518.027-.545-.214-.926-.712-.367-.161-6.705.492-.098-.055-.392-.099.598-.678-.393-.302-.463-.651-.365-.339.338-1.757-.358-1.916-1.114-3.237-.597-6.099-.517-1.48 1.035-.518.16-1.213-1.061-3.886-.367-.858-2.951-3.174-.775-.134-1.266.231-1.713 1.116-1.088.258-1.239-.705-.669-2.014-.472-8.953-1.936-8.123.152-1.455-.437-1.338-.49-4.459-.491-.953-2.621-12.966-2.997-14.845-6.777-21.222-1.167-.653-.055-.463.109-1.087-.054-.465-2.64-8.721-1.579-2.488-7.061-15.906-.572-.787-7.48-12.857-2.07-2.64-.695-1.703-.205-.491-3.005-4.297-6.313-6.528-1.686-3.024-3.932-2.923-1.731-3.049-3.754-3.364-1.194-1.55-1.907-1.248 2.041-3.746.49-1.604 1.498-4.718.883-2.667 3.308-10.324 2.666-8.25 3.238-8.516 4.298-11.36 5.199-13.661 1.836-7.767.177-4.04.5-1.648 1.338-1.811v-.025l.856-1.196-.027-1.319-.801-2.918-.153-1.711.178-1.114.598-.901 4.609-4.04.929-1.399 2.792-7.991 4.974-14.338 3.282-9.345.232-.543.134-.562.053-.571-.027-.607.518-5.278 3.701-10.113 3.307-9.077 2.176-9.942-.178-6.68.589-2.299 1.944-3.987.748-1.4.598.054.775-.106.669.034.259.384.16.624.357.669.651 1.034 1.453 1.82.535.847.366 1.293.312 2.639.625 2.122 1.105 1.819.803 2.408.445 5.421.615 2.409 3.933 10.557.339 1.97.08 5.877.615 3.282.34.855.418.749.304.856.053 1.159.99 3.835 3.62 5.387 1.374 3.263v3.075l-1.739 5.93.027 2.764.598 1.678.802 5.073.517 1.222.571.981.437 1.06.177 1.347-.231 1.375-1.187 1.961-.445 1.016v2.318l1.48 3.96.383 2.335 3.656 11.932 4.94 10.005.642 2.335.392 2.48.286 1.087.571 1.196.641.766 1.428 1.276.49.936.286 2.167-.054 2.175.232 2.221 1.087 2.204 3.291 3.182.955 1.782-.027 3.059.543 2.872 3.359 6.628-1.29.229-1.293.677-.641 1.187-.393 2.845-2.096 3.316-.419 3.389.936 2.462 2.613-.473.039.058-.449 2.607 1.034 2.381 1.187 2.069.159 2.124-.064.07-.711.135-.758 1.781-.357 4.95-.677 4.003.597 3.576-.669 4.147.491 1.748.802 1.604.571 1.765-.053 1.142-.544 2.372.026 1.249.384.962 1.917 3.069 1.632 3.915 1.837 3.468 2.558 2.505 3.754.954h.643l.026-.014-1.782 5.33v.713l.936 1.249-2.079 7.918.241.802.518.284.588.18.394.444.052.804-.49 1.087-.16.82-.055 1.347-.177 1.035-.911 2.326-.15 4.584.463 1.712 1.428 1.159-.91 1.213.052 1.141 1.428 2.435-.447.615v.554l.392.437.67.366v.749l-.357 1.158 1.471 6.259h-1.114l.159.572.206.365.339.26.41.232-.668 1.168-.313 1.881.026 1.89.358 1.168-.749 1.472.053 2.978-.436.98v.678h.615v-.678h.517l-.125.883-.259.777-.338.623-.41.436-.205.313-.365 1.087.8.18.358.259-.071.419-.517.517v.624h.615l-.125.464-.135.052-.177-.034-.178.187 1.132.748-.517.67.571.268.543.355v.733l-.366.07-.231.125-.205.215-.312.205.159.668.314.678.516.515.749.234v.624l-.775.82-.187.418-.589.902h-.366l-.436-.054v.677h1.132l-.232.644-.285 2.104.517-.697.392 1.088.205.33.107-.365.055-.233.124.054.338.544-.462 1.24-.26 2.569-.499.9v.758h.597v.614l-.722.421-.339.713.054.803.178.337.598.268.748.67 1.268 1.686 1.56 1.104 2.014-.231 1.347.695 2.792 2.488 4.634 2.924 1.473.385 2.257 3.371 4.217 4.993.643 2.531-.342 1.267.994 2.978 1.441 2.48.626.159 1.158 2.247z" /><path id="additional_area" d="m311.1211 280.9805-.205-.491-3.005-4.297-6.313-6.528-1.686-3.024-3.933-2.924-1.73-3.049-3.754-3.363-1.194-1.551-1.908-1.248 2.041-3.746.491-1.603 1.498-4.718v.026l1.374 1.249 4.325 3.209 2.969 3.175.24 1.686-.703 3.362.025 1.677 1.811 3.441 9.551 9.141 1.265.855h.028l2.746 2.533.178 2.094-1.606 1.999zm90.874 64.71.159.571.206.365.339.26.41.233-.669 1.168-.312 1.881.026 1.89.358 1.168-.749 1.472.052 2.977-.435.981v.678h.615v-.678h.517l-.125.883-.259.777-6.804 1.765-1.997.518-1.988.051-2.203.643-.463 2.515.052 3.076-.748 2.354-2.515 1.551-2.506.287-5.332-.259-1.525.544-2.407 1.987-1.275.678-1.498-.106-1.186-.874-2.123-2.488-2.612-1.632-2.515-1.213-2.22-1.605-1.659-2.87-1.345-6.867-.625-2.034-.313-.241-1.105-.41-.339-.239-.339-1.268-.313-3.12-.257-1.302 1.06-.338.598-.722.133-1.063-.284-1.266-.625-1.213-3.291-3.03-1.105-1.446-.187-.963 1.373-3.048.437-1.686 1.062-9.336.026-1.839-.125-2.201v-.079l.027-.055.053-.054.045-.045.08-.311.027-.355-.027-.376-.08-.33-.357-2.953 1.65-3.878 1.017-3.308-2.31-1.302-2.273-.803-.67-1.756.802-1.648 2.765-.502 1.319-.025.598.133.856.517 1.471 1.606.624.41 1.213-.205 4.397-2.122 5.849-1.374 1.453-.883.643-1.213.16-1.658-.134-2.123-.311-.534-.385-.133-.445.205-.463.462-5.2-1.14-1.605-.794-1.497-1.222-2.952-2.997-6.777-5.099-1.56-1.837-1.499-2.927-.383-2.69-.027-2.748-.49-3.201-3.781-6.34-1.239-3.282.98-3.317 1.864-1.401 2.22-.365 2.336.365 2.141.76 5.047.696 10.531-.109 4.922 1.837 9.185 7.66 4.86 2.774.666.055-.426 2.638.49 1.748.803 1.604.57 1.765-.052 1.142-.544 2.372.026 1.249.384.962 1.917 3.069 1.632 3.915 1.837 3.468 2.558 2.505 3.754.954h.643l.026-.014-1.782 5.329v.713l.935 1.249-2.078 7.918.24.803.519.284.588.18.393.444.053.804-.49 1.087-.16.82-.055 1.347-.178 1.035-.91 2.326-.15 4.584.463 1.712 1.427 1.159-.91 1.213.053 1.141 1.428 2.434-.447.616v.554l.392.437.67.366v.749l-.357 1.158 1.471 6.259z" /></g></svg>
