<svg style="position: absolute; width: 0; height: 0; overflow: hidden;" version="1.1" xmlns="http://www.w3.org/2000/svg" xmlns:xlink="http://www.w3.org/1999/xlink"><defs><symbol id="icon-facebook" viewBox="0 0 32 32"><path d="m16 0c-8.837 0-16 7.163-16 16s7.163 16 16 16c8.837 0 16-7.163 16-16v0c0-8.837-7.163-16-16-16z" fill="#3c5a99"/><path d="m20.26 15.73h-2.7v9.64h-4v-9.64h-1.9v-3.4h1.9v-2.2c-.005-.074-.008-.161-.008-.248 0-2.077 1.683-3.76 3.76-3.76.087 0 .174.003.26.009l-.012-.001h3v3.27h-2.16c-.011-.001-.024-.001-.038-.001-.453 0-.82.367-.82.82 0 .039.003.078.008.115v-.004 2h3.05z" fill="#fff"/></symbol><symbol id="icon-logo" viewBox="0 0 168 32"><g style="transform: translate(10px, 0px);"><g style="transform: translate(-30px, 2px) scale(1.2);"><path d="m4.716 15.125h-.703v-3.008q0-1.212-.57-1.869c-.339-.368-.824-.598-1.362-.598-.032 0-.065.001-.097.002h.004-1.835v-.761h1.825c.038-.002.082-.003.126-.003.708 0 1.35.288 1.812.754l0 0q .797.855.797 2.474zm-3.747 0h-.727v-3.393h.727z"/><path d="m10.906 11.519c0 .001 0 .002 0 .004 0 .97-.368 1.854-.972 2.52l.003-.003q-.153.172-.446.446t-.727.642h-.79v-.138c.512-.4.967-.816 1.387-1.266l.006-.007c.251-.251.459-.545.61-.871l.008-.019c.145-.353.229-.762.229-1.191 0-.033-.001-.066-.001-.098v.005-1.881h-4.219v-.771h4.912zm-4.096 6.059h-.727v-6.597h.727z"/><path d="m12.83 12.617h-.713v-3.725h.713z"/><path d="m19.485 11.984c.002.04.003.087.003.134 0 .838-.291 1.608-.779 2.214l.005-.007c-.451.562-1.138.919-1.908.919-.019 0-.038 0-.058-.001h.003c-.033.002-.071.003-.11.003-.78 0-1.47-.38-1.897-.965l-.005-.007q-.659-.926-.659-2.472v-2.908h.703v2.908q0 1.253.502 1.975c.306.442.811.729 1.383.729.025 0 .05-.001.075-.002h-.004c.01 0 .022 0 .034 0 .576 0 1.089-.272 1.417-.694l.003-.004c.357-.466.573-1.058.573-1.7 0-.047-.001-.093-.003-.139v.007c.005-.061.008-.132.008-.204 0-.6-.2-1.154-.536-1.599l.005.007c-.263-.366-.686-.602-1.166-.603h0q-.691 0-1.188.759h-.095v-.834q.39-.64 1.314-.64c.018-.001.038-.001.059-.001.663 0 1.254.311 1.634.796l.003.005q.686.843.683 2.324z"/><path d="m26.133 11.95q0 1.546-.802 2.455c-.446.497-1.09.808-1.807.808-.469 0-.906-.133-1.277-.363l.01.006v-.817h.039c.325.282.752.454 1.219.454.022 0 .044 0 .066-.001h-.003c.003 0 .007 0 .011 0 .506 0 .955-.24 1.242-.612l.003-.004c.359-.48.574-1.085.574-1.741 0-.058-.002-.115-.005-.172v.008c.002-.038.003-.082.003-.127 0-.615-.216-1.179-.576-1.621l.004.005c-.351-.407-.866-.663-1.442-.663-.589 0-1.115.268-1.464.689l-.003.003q-.64.759-.64 2.067v2.799h-.686v-6.233h.712v1.529q.649-1.607 2.164-1.607c.027-.001.059-.002.092-.002.743 0 1.407.341 1.844.875l.003.004c.45.566.722 1.29.722 2.078 0 .063-.002.126-.005.189v-.009z"/><path d="m32.405 15.125h-.727v-3.25q0-1.212-.528-1.762-.47-.46-1.454-.46h-1.224v3.955c.002.028.003.061.003.094 0 .435-.174.83-.456 1.118l0 0c-.239.247-.574.4-.944.4-.009 0-.018 0-.027 0h .001c-.01 0-.023.001-.035.001-.141 0-.275-.035-.391-.097l.005.002v-.771h.041c.066.059.154.095.25.095.007 0 .014 0 .02-.001h-.001q.824 0 .824-1.064v-4.493h1.939q2.693 0 2.693 2.991z"/><path d="m39.176 11.95q0 1.546-.802 2.455c-.446.498-1.09.81-1.808.81-.468 0-.905-.133-1.275-.362l.01.006v-.819h.048c.325.282.752.454 1.219.454.022 0 .044 0 .066-.001h-.003c.003 0 .007 0 .011 0 .506 0 .955-.24 1.242-.612l.003-.004c.359-.48.574-1.085.574-1.74 0-.058-.002-.115-.005-.172v.008c.002-.038.003-.082.003-.127 0-.615-.216-1.179-.576-1.621l.004.005c-.35-.407-.866-.663-1.442-.663-.589 0-1.115.268-1.464.689l-.003.003q-.64.759-.64 2.067v2.799h-.7v-6.233h.712v1.529q.65-1.607 2.164-1.607c.027-.001.059-.002.092-.002.743 0 1.407.341 1.844.875l.003.004c.453.566.727 1.293.727 2.084 0 .061-.002.122-.005.183v-.008z"/><path d="m44.784 15.125h-4.767v-.727h1.667c.015 0 .032.001.049.001.589 0 1.118-.253 1.486-.656l.001-.002c.385-.433.621-1.006.621-1.634 0-.041-.001-.081-.003-.121v.006q0-1.248-.703-1.898c-.361-.334-.846-.539-1.378-.539-.016 0-.033 0-.049.001h.002c-.032-.002-.07-.003-.107-.003-.554 0-1.062.2-1.454.531l.003-.003h-.068v-.848q.523-.429 1.696-.429c.021-.001.045-.001.069-.001.724 0 1.38.295 1.853.771l0 0q .834.836.834 2.276 0 1.767-1.255 2.545h1.505z"/><path d="m52.898 15.125h-.807v-3.104q0-1.236-.633-1.888c-.372-.357-.878-.576-1.436-.576-.029 0-.057.001-.086.002h.004c-.04-.003-.088-.004-.135-.004-.575 0-1.099.215-1.498.568l.002-.002h-.082v-.829q.562-.485 1.726-.485c.04-.002.086-.003.133-.003.748 0 1.427.29 1.933.763l-.002-.001q.865.841.865 2.448z"/><path d="m60.469 11.417q0 1.939-1.015 2.879-.885.829-2.472.829h-2.639v-6.233h.795v3.635c.561-.179 1.032-.507 1.382-.937l.004-.005q.327-.473.327-1.481v-1.212h.795v1.171q0 2.077-1.832 2.741h-.674v1.612h2.055c.037.002.081.003.125.003.674 0 1.28-.29 1.701-.753l.002-.002q.657-.759.657-2.06v-2.712h.795z"/><path d="m66.646 12.021c.002.044.004.095.004.147 0 .898-.393 1.705-1.016 2.257l-.003.003c-.545.479-1.264.772-2.051.772-.029 0-.059 0-.088-.001h.004c-.057.003-.124.005-.191.005-.576 0-1.121-.136-1.603-.378l.021.009v-.831h.073c.453.282 1.003.45 1.592.45.03 0 .06 0 .089-.001h-.004c.019.001.041.001.063.001.595 0 1.139-.223 1.551-.589l-.002.002c.462-.432.749-1.045.749-1.725 0-.042-.001-.084-.003-.125v.006c.002-.037.003-.079.003-.123 0-.676-.283-1.286-.737-1.718l-.001-.001c-.409-.382-.96-.616-1.566-.616-.016 0-.032 0-.048.001h.002q-1.086 0-1.677.502h-.073v-.831q.543-.429 1.832-.429c.02-.001.044-.001.068-.001.786 0 1.503.296 2.045.784l-.003-.002q.969.894.969 2.436z"/><path d="m68.714 15.125h-.807v-6.233h.807z"/><path d="m76.44 11.95q0 1.546-.906 2.455c-.489.499-1.171.808-1.924.808-.021 0-.041 0-.062-.001h.003c-.04.002-.087.003-.135.003-.499 0-.967-.132-1.372-.362l.014.007v-.822h.053c.376.284.851.455 1.367.455.031 0 .061-.001.092-.002h-.004c.011 0 .023 0 .036 0 .549 0 1.042-.237 1.383-.614l.001-.002c.403-.469.649-1.084.649-1.756 0-.053-.001-.105-.004-.156v.007c.002-.033.003-.071.003-.11 0-.632-.246-1.207-.648-1.634l.001.001c-.42-.407-.993-.657-1.625-.657-.646 0-1.231.262-1.654.687l0 0q-.727.759-.727 2.067v2.799h-.807v-6.233h.807v1.529q.727-1.607 2.448-1.607c.037-.002.08-.003.124-.003.81 0 1.542.338 2.061.881l.001.001c.514.553.83 1.297.83 2.114 0 .05-.001.099-.004.149v-.007z"/><path d="m84.651 15.125h-.797v-3.104q0-1.236-.633-1.888c-.372-.357-.878-.576-1.436-.576-.029 0-.057.001-.086.002h.004c-.04-.003-.088-.004-.135-.004-.575 0-1.1.215-1.498.568l.002-.002h-.073v-.829q.562-.485 1.726-.485c.04-.002.086-.003.133-.003.748 0 1.427.29 1.933.763l-.002-.001q.865.841.865 2.448z"/><path d="m90.581 11.39q0 1.798-1.04 2.789-.969.943-2.615.943h-1.236v-.756h1.297c.037.001.08.002.123.002.3 0 .592-.035.872-.102l-.026.005-2.322-5.38h.918l2.089 5.123q1.134-.562 1.134-2.377v-2.746h.807z"/><path d="m92.891 15.125h-.797v-6.233h.807z"/><path d="m96.044 15.125h-1.97v-.746h1.171v-3.802q0-.914-.812-.914c-.014-.001-.031-.002-.048-.002-.101 0-.197.023-.283.064l.004-.002v-.756c.099-.047.216-.074.339-.074.015 0 .031 0 .046.001h-.002c.019-.001.041-.001.063-.001.41 0 .785.154 1.068.407l-.002-.001c.272.271.44.645.44 1.059 0 .035-.001.07-.004.104v-.005z"/><path d="m101.608 11.461c0 .022.001.047.001.072 0 .474-.089.927-.252 1.344l.009-.025c-.199.446-.462.827-.783 1.151l0 0c-.184.187-.378.363-.581.528l-.013.01q-.351.281-.817.591h-.889v-.138q.574-.412.982-.727t.666-.577c.285-.257.519-.564.69-.908l.008-.018c.119-.318.187-.686.187-1.07 0-.05-.001-.099-.003-.148v.007-1.89h-3.732v-2.276h.807v1.505h3.72z"/><path d="m111.651 15.125h-.812v-3.25q0-1.212-.596-1.762-.531-.46-1.636-.46h-1.386v3.955c.001.023.002.051.002.079 0 .451-.199.856-.514 1.132l-.002.002c-.279.248-.649.4-1.054.4-.011 0-.022 0-.034 0h .002c-.014.001-.031.001-.048.001-.158 0-.308-.035-.443-.098l.006.003v-.771h.048c.076.059.174.095.28.095.009 0 .018 0 .027-.001h-.001q.931 0 .931-1.064v-4.493h2.181q3.044 0 3.044 2.991z"/><path d="m113.772 12.617h-.807v-3.725h.807z"/><path d="m116.925 15.125h-1.97v-.746h1.163v-3.802q0-.914-.812-.914c-.014-.001-.031-.002-.048-.002-.101 0-.197.023-.283.064l.004-.002v-.756c.099-.047.216-.074.339-.074.015 0 .031 0 .046.001h-.002c.019-.001.041-.001.063-.001.41 0 .785.154 1.068.407l-.002-.001c.272.271.44.645.44 1.059 0 .035-.001.07-.004.104v-.005z"/><path d="m123.114 12.021c.002.044.004.095.004.147 0 .898-.393 1.705-1.016 2.257l-.003.003c-.545.479-1.264.772-2.051.772-.029 0-.059 0-.088-.001h.004c-.057.003-.124.005-.191.005-.576 0-1.121-.136-1.603-.378l.021.009v-.831h.073c.453.282 1.003.45 1.592.45.03 0 .06 0 .089-.001h-.004c.019.001.041.001.063.001.595 0 1.139-.223 1.551-.589l-.002.002c.462-.432.749-1.045.749-1.725 0-.042-.001-.084-.003-.125v.006c.002-.035.003-.077.003-.118 0-.678-.285-1.29-.741-1.723l-.001-.001c-.409-.382-.96-.616-1.566-.616-.016 0-.032 0-.048.001h.002q-1.086 0-1.677.502h-.073v-.831q.543-.429 1.832-.429c.022-.001.047-.001.073-.001.786 0 1.503.296 2.045.784l-.003-.002q.969.894.969 2.436z"/><path d="m130.227 15.125h-.812v-3.25q0-1.212-.596-1.762-.531-.46-1.636-.46h-1.386v3.955c.001.023.002.051.002.079 0 .451-.199.856-.514 1.132l-.002.002c-.279.248-.649.4-1.054.4-.011 0-.022 0-.034 0h .002c-.014.001-.031.001-.048.001-.158 0-.308-.035-.443-.098l.006.003v-.771h.048c.076.059.174.095.28.095.009 0 .018 0 .027-.001h-.001q.931 0 .931-1.064v-4.493h2.181q3.044 0 3.044 2.991z"/><path d="m136.795 15.125h-.795v-3.008q0-1.212-.645-1.869c-.398-.372-.934-.6-1.524-.6-.046 0-.091.001-.135.004h.006-2.065v-.761h2.065q1.398 0 2.203.751.889.853.889 2.484zm-4.227 0h-.812v-3.393h.809z"/></g><g><path d="m166.461 11.773c-.645-.036-1.04.274-1.02.797s.424.686.32 1.057c-.099.478-.483.843-.963.913l-.006.001c-.514.075-2.574-.046-2.574-.046s-7.178-.242-10.874-.242c-5.545 0-7.174 2.666-7.537 5.574s.587 3.594 1.212 3.594 1.183-.15 1.212-.887-.584-1.083-.766-1.19-.713-.378-.727-1.612.868-2.889 2.344-3.836 4.311-.807 4.311-.807-2.848 11.25-3.756 13.329c-.589 1.345-1.425 2.545-2.128 2.806s-1.493-.216-1.895-.727-.999-.928-1.641-.47-.366 1.304.385 1.616c.444.184 1.226.436 2.598.332 1.951-.145 4.522-2.13 6.609-10.179.504-1.939 1.379-3.703 1.745-6.468l6.759.065-5.053 15.935 5.877.075.046-.606-3.361-.182 4.139-15.304c1.189-.011 2.347-.098 3.482-.258l-.14.016c1.747-.242 2.251-1.403 2.334-2.019s-.053-1.226-.931-1.277z"/><path d="m151.176 8.596c0 2.773 2.248 5.021 5.022 5.021s5.022-2.248 5.022-5.021v0c0-.003 0-.006 0-.009 0-.809-.193-1.573-.537-2.249l.013.028 4.561-1.781-8.213-4.585-8.587 2.768 3.776 2.748c-.659.836-1.057 1.904-1.057 3.065 0 .005 0 .011 0 .016zm9.316 0c0 2.372-1.923 4.294-4.294 4.294s-4.294-1.923-4.294-4.294v0c0-.005 0-.011 0-.017 0-.996.342-1.911.916-2.636l-.007.009-.286-.223 3.422 2.489 4.411-1.723-.327.165c.29.56.46 1.222.46 1.924 0 .004 0 .009 0 .013v-.001zm-3.017-7.365c.021-.036.06-.06.104-.06.02 0 .039.005.056.014h-.001l5.797 2.935c.1.051.168.153.168.271 0 .167-.136.303-.303.303-.051 0-.098-.012-.14-.034l.002.001h-.015l-5.615-3.262c-.041-.02-.068-.061-.068-.109 0-.021.006-.041.015-.059v.001zm-4.651 3.078c.476-.46 1.061-.812 1.712-1.012l.03-.008c.467-.149 1.003-.235 1.56-.235.159 0 .316.007.472.021l-.02-.001c.716.056 1.375.25 1.967.556l-.029-.013c.619.309 1.129.752 1.509 1.293l.009.013c.021.032.033.071.033.114 0 .116-.094.211-.211.211-.054 0-.103-.02-.14-.053l0 0c-.422-.382-.919-.69-1.465-.9l-.032-.011c-.5-.196-1.079-.322-1.684-.351h-.013c-.087-.005-.189-.007-.291-.007-.509 0-1.004.064-1.476.183l.041-.009c-.607.154-1.141.385-1.626.688l.024-.014c-.045.029-.1.047-.159.047-.163 0-.296-.132-.296-.296 0-.084.035-.16.091-.214l0 0zm-3.005-1.183c-.086-.068-.14-.171-.14-.288 0-.202.164-.366.366-.366.067 0 .129.018.183.049l-.002-.001c.021.014.039.029.056.046l0 0 2.036 2.062c.013.013.021.031.021.051 0 .04-.033.073-.073.073-.015 0-.029-.005-.04-.012l0 0z"/><path d="m166.417 3.092c.244.335.39.754.39 1.208 0 .035-.001.071-.003.106v-.005c-.014.475-.204.903-.505 1.225l.001-.001c-.147.158-.324.286-.523.374l-.01.004-.383.153c-.133.058-.269.114-.4.179-.568.254-1.048.611-1.436 1.052l-.004.005c-.205.23-.359.51-.44.82l-.003.014c-.024.098-.037.21-.037.326 0 .143.021.281.059.411l-.003-.01-.298.187v.434l1.403 2.465 1.403-.829-1.515-2.465-.383-.182-.327.204c.007-.154.04-.299.095-.433l-.003.009c.106-.232.253-.427.434-.585l.002-.002c.375-.323.817-.582 1.299-.754l.029-.009c.121-.048.242-.09.373-.133l.191-.058.095-.029.116-.039c.328-.122.609-.3.844-.527l-.001.001c.459-.455.749-1.08.766-1.773v-.003c0-.017.001-.037.001-.057 0-.663-.229-1.273-.613-1.755l.004.006c-.392-.473-.904-.833-1.489-1.037l-.024-.007c-.539-.179-1.16-.283-1.805-.283-.565 0-1.112.079-1.629.228l.042-.01c1.115.051 2.23.184 3.151.642.46.218.841.536 1.128.927l.006.008z"/></g></g></symbol><symbol id="icon-x" viewBox="0 0 32 32"><path d="m21.274 16.299l10.921 15.686h-10.009l-6.23-9.994-6.17 10.009h-9.785l10.607-16.433-9.979-15.567h9.591l5.781 9.89 5.528-9.89h9.845z"/></symbol><symbol id="icon-x2" viewBox="0 0 32 32"><path d="m16 32c-8.837 0-16-7.163-16-16s7.163-16 16-16c8.837 0 16 7.163 16 16v0c-.012 8.832-7.168 15.988-15.999 16zm0-30.476c-7.995 0-14.476 6.481-14.476 14.476s6.481 14.476 14.476 14.476c7.995 0 14.476-6.481 14.476-14.476v0c-.009-7.992-6.485-14.468-14.475-14.476z"/><path d="m17.778 16.107l3.713 5.333h-3.418l-2.123-3.403-2.098 3.398h-3.322l3.606-5.587-3.393-5.288h3.261l1.966 3.363 1.884-3.363h3.363z"/></symbol><symbol id="icon-book" viewBox="0 0 58 32"><path d="m57.62 22.27c-.201-.418-.459-.775-.77-1.079l-.001-.001c-1.484-2.621-3.617-4.86-5.363-7.266s-3.318-4.928-4.996-7.376c-.356-.75-.776-1.489-1.195-2.212-.061-.104-.172-.173-.299-.173h0c-4.823.031-8.592-3.811-13.368-4.163-.078-.002-.171-.004-.263-.004-1.65 0-3.204.411-4.565 1.135l.053-.026c-.991.472-2.291 1.258-2.71 2.37-.524-.645-1.457-1.017-2.16-1.311-1.063-.444-2.298-.702-3.593-.702-.877 0-1.727.118-2.534.34l.067-.016c-3.696.891-6.721 4.184-10.679 4.042-.005 0-.01 0-.015 0-.084 0-.157.044-.199.11l-.001.001c-.004 0-.009-.001-.015-.001-.077 0-.141.054-.158.125v.001c-1.205.078-2.328.265-3.41.552l.123-.028c-.11.03-.195.115-.225.223l-.001.002c-.64 2.097-.341 4.383-.498 6.543-.178 2.558-.283 5.127-.467 7.685s-.121 5.075-.225 7.586c-.037.865-.676 3.35.896 3.35.759-.081 1.454-.243 2.112-.481l-.062.02c1.242-.288 2.49-.524 3.727-.87 2.469-.634 4.917-1.368 7.371-2.097s4.786-1.269 7.208-1.814c2.813-.564 5.172-1.198 7.472-1.962l-.442.127c.977-.286 1.827-.661 2.615-1.129l-.052.028c.587.406 1.313.65 2.096.655h.001c.035.002.076.003.117.003.893 0 1.664-.518 2.031-1.269l.006-.013c.027.008.058.013.09.013.1 0 .19-.046.25-.117v-.001c.753-.072 1.629-.113 2.514-.113s1.76.041 2.625.121l-.111-.008c1.877.079 3.759.089 5.636.094 3.67 0 7.381.042 11.051-.315.204-.016.363-.185.363-.392 0-.07-.018-.135-.05-.192l.001.002zm-56.933 8.204c.019.219.046.414.084.606l-.006-.035c-.051-.147-.081-.316-.081-.492 0-.028.001-.056.002-.083v.004zm54.422-9.504c-.115-.105-.231-.215-.341-.33v-.047c.11.115.231.241.341.377zm-3.67-5.442v0 0l-.252-.325-.079-.121zm-23.45-14.154c.975-.399 2.107-.631 3.293-.631.666 0 1.316.073 1.941.212l-.059-.011c4.058.87 7.371 3.853 11.633 3.906 1.295 2.249 2.301 4.655 3.596 6.91.655 1.148 1.342 2.275 2.029 3.408.472.776 1.138 1.526 1.415 2.401-3.837.907-7.801-.393-11.638-.792-2.495-.262-5.484-.073-7.124 2.034-1.292-2.913-2.693-5.4-4.298-7.736l.104.161c-1.51-2.191-4.357-6.815-4.362-6.815-.004-.09-.015-.174-.033-.256l.002.01c.152-1.552 2.301-2.343 3.491-2.789zm-14.133 1.85c1.393-.678 3.03-1.074 4.76-1.074.262 0 .522.009.78.027l-.035-.002c1.042.118 1.992.399 2.863.82l-.053-.023c.524.231 1.426.587 1.709 1.185 0 .042 3.014 5.143 4.535 7.339 1.368 1.985 2.661 4.257 3.756 6.639l.118.286c-.425-.369-.905-.692-1.423-.952l-.04-.018c-.984-.491-2.129-.833-3.337-.961l-.044-.004c-2.343-.283-4.666.398-6.752 1.405-1.185.571-2.307 1.269-3.481 1.861-1.258.629-2.532 1.216-3.811 1.803-2.039.933-4.33 2.144-6.637 2.097.047-2.91-.315-5.809-.33-8.718-.082-3.08-.388-6.024-.902-8.896l.053.356c3.062-.021 5.583-1.908 8.273-3.172zm-10.081 3.534l-.168.142c.002-.015.004-.032.004-.05s-.001-.035-.004-.052v.002zm-1.788 19.339q0 .257 0 .524l-.031-.058c-.015-.028-.033-.052-.053-.074l0 0v-.079c0-.11 0-.215 0-.325 0 0 0 0 0-.031.056-.02.098-.067.11-.125v-.001c0-.115.037-.231.047-.346-.052.163-.063.341-.073.514zm.524 2.621c-.016-.17-.025-.367-.025-.566s.009-.397.027-.591l-.002.025c0-.723.047-1.442.089-2.165.105-1.788.052-3.549 0-5.347-.002-.201-.003-.439-.003-.677 0-2.617.127-5.205.374-7.757l-.025.324c.023-1.049.214-2.046.545-2.976l-.021.066c.031.524.121 1.122.121 1.211.079 2.191-.105 4.414.21 6.59 0 .105.168.068.173 0 .115-1.772.031-3.586-.026-5.363-.009-.787-.064-1.552-.162-2.304l.01.097c0-.068-.073-.409-.11-.703.052-.105.11-.215.168-.32l.047-.073c.121-.152.24-.324.349-.502l.013-.022c.013.695.062 1.363.146 2.021l-.01-.092c.115 1.09.126 2.181.131 3.277 0 2.097-.105 4.194.042 6.317 0 .032.026.058.058.058s.058-.026.058-.058v0c .157-2.202.147-4.414.131-6.621 0-1.096-.047-2.176-.157-3.266-.052-.477-.1-.959-.126-1.436 0-.194 0-.393 0-.587.173-.231.356-.456.524-.682v0c .409 2.464.675 5.349.738 8.284l.001.067c0 3.014.409 6.018.309 9.033 0 .003 0 .007 0 .011 0 .099.049.187.125.24l.001.001c-.578.679-1.144 1.427-1.665 2.209l-.055.088c0-.671-.058-1.342-.073-2.018h-.047c0 .744-.073 1.489-.079 2.233-.001.005-.001.01-.001.016s0 .011.001.016v-.001c-.147.183-.299.372-.451.55.039-.528.062-1.144.062-1.766 0-1.197-.083-2.374-.245-3.526l.015.133c0-.031-.058 0-.052 0 .136 1.856-.267 3.717-.136 5.562-.32.357-.652.684-1.003.99l-.014.012zm5.662.865l.64-.225.037.047zm7.03-1.987l.425-.157.152-.042c.393-.11.786-.215 1.185-.309h.047zm15.476-4.43c-.044.038-.091.074-.142.107l-.005.003c-.147.094-.304.178-.467.257.244-.159.453-.313.652-.477l-.013.01c-.005.027-.009.059-.01.092v.002zm.194-1.405c-.419.125-.912.221-1.42.27l-.033.003c-.844.163-1.548.344-2.237.562l.14-.038c-2.894.744-5.767 1.484-8.661 2.296s-5.767 1.746-8.671 2.511c-1.353.357-2.716.744-4.094.98-1.061.123-1.996.294-2.909.52l.157-.033c.322-.324.627-.666.914-1.023l.02-.025c.697-.157 1.384-.377 2.097-.524 1.148-.235 2.101-.492 3.032-.799l-.19.054c.084-.031.073-.173 0-.163-1.019.126-1.908.293-2.778.51l.157-.033c-.752.144-1.403.326-2.032.553l.092-.029.22-.299c.231-.419.566-.844.86-1.263.896-.246 1.877-.131 2.737-.493.079-.031.037-.157-.042-.157-.043-.001-.094-.001-.144-.001-.795 0-1.571.084-2.319.245l.072-.013c.223-.308.452-.664.662-1.032l.03-.058c1.982.147 3.921-.682 5.709-1.452 2.774-1.125 5.046-2.224 7.241-3.446l-.331.169c2.097-1.201 4.231-2.186 6.653-2.312.131-.006.284-.01.439-.01 1.157 0 2.267.195 3.302.555l-.07-.021c1.208.448 2.251 1.064 3.161 1.832l-.016-.013c-.529.86-.64 1.803-1.73 2.17zm.734 1.678c-.059-.024-.11-.057-.152-.1v0l .058-.094.063.079c.049.059.101.112.156.161l.001.001zm2.673-.896c-.331.388-.809.641-1.348.671h-.005c-.031.003-.067.005-.103.005-.237 0-.455-.081-.628-.217l.002.002c-.154-.143-.277-.318-.358-.514l-.004-.01c.071-.2.157-.373.263-.533l-.006.009c.026-.037.041-.082.042-.131v0c .383-.474.7-1.022.925-1.616l.014-.041c.542.494.959 1.116 1.202 1.82l.009.031c-.001.01-.002.022-.002.034s.001.024.002.036v-.002c.026.157.084.346-.005.456zm16.252-.976c-1.835-.084-3.67-.225-5.505-.246s-3.837.11-5.767.163c-.965 0-1.934.1-2.899.11-.068-.005-.147-.008-.227-.008-.438 0-.857.082-1.243.23l.024-.008c-.127-.483-.344-.905-.634-1.265l.005.006c.031-.409 1.185-.923 1.426-1.049.532-.273 1.15-.491 1.799-.621l.046-.008c2.296-.467 4.488-.079 6.763.236.001 0 .002 0 .003 0 .043 0 .079-.035.079-.079 0-.029-.016-.054-.039-.068l0 0c-1.081-.391-2.328-.617-3.629-.617-.105 0-.209.001-.313.004h.015c-.132-.005-.287-.008-.443-.008-1.12 0-2.206.14-3.244.405l.091-.02c-.43.11-2.621.949-2.663 1.662-.273-.336-.571-.655-.839-.97 1.667-2.506 5.242-2.322 7.864-1.94 3.523.524 7.245 1.494 10.789.661.173.211.32.453.428.715l.007.019c-.014.03-.022.065-.022.102s.008.072.022.104l-.001-.002c-.304.1-.603.204-.876.273-1.153.288-2.228 0-3.381.11-.047 0-.068.084 0 .094 1.012.142 1.955.477 2.988.294.524-.089 1.012-.22 1.515-.362l.105.288c.068.181.142.335.228.481l-.008-.014h-.225c-.687 0-1.363 0-2.055.073-.011.005-.019.016-.019.029s.008.024.019.029l0 0c .749.135 1.615.217 2.498.225h.008c.209.285.411.61.588.949l.02.042c-.933.43-2.333.042-3.292 0z"/><path d="m22.684 4.467c-.807-.818-2.27-.991-3.355-1.048-.16-.009-.348-.014-.537-.014-1.329 0-2.601.247-3.771.699l.072-.024c-1.355.582-2.524 1.285-3.582 2.122l.033-.025c-.471.352-1.008.699-1.566 1.01l-.075.038c-.658.286-1.436.537-2.242.713l-.086.016c-.089.026-.1.173 0 .189 2.385.414 4.624-1.851 6.543-2.931 1.234-.672 2.69-1.099 4.238-1.179l.024-.001c.15-.009.326-.014.503-.014.618 0 1.221.062 1.803.181l-.058-.01c.204.037 1.851.629 1.861.608-.01.01-.015.024-.015.039s.006.029.015.039l0 0c .147.073.199-.11.231-.204.008-.021.012-.045.012-.07 0-.051-.018-.098-.049-.135l0 0z"/><path d="m23.434 6.364c-1.51-1.761-5.054-1.195-6.883-.32-2.621 1.253-4.834 3.822-7.895 3.916-.156 0-.283.127-.283.283s.127.283.283.283v0c2.621-.037 4.645-1.803 6.768-3.145 1.033-.668 2.249-1.153 3.555-1.376l.057-.008c.333-.067.717-.106 1.109-.106 1.114 0 2.156.31 3.043.849l-.026-.015c.037.028.085.046.136.046.125 0 .226-.101.226-.226 0-.074-.035-.139-.09-.18h-.001z"/><path d="m24.64 8.503c-.524-.965-2.291-.933-3.203-.891-1.441.101-2.78.415-4.027.912l.09-.032c-1.623.679-3.001 1.407-4.305 2.242l.111-.067c-.703.404-1.415.792-2.155 1.138s-1.573.446-2.343.744c-.21.084-.278.451 0 .498 1.143.199 2.532-.613 3.512-1.117 1.4-.723 2.726-1.573 4.136-2.296 1.139-.582 2.459-1.032 3.85-1.282l.087-.013c.513-.097 1.103-.152 1.705-.152.224 0 .447.008.668.023l-.03-.002c.64.042 1.201.351 1.819.419.084.005.084-.073.084-.126z"/><path d="m25.468 10.564c-.556-.954-1.882-.975-2.852-.907-1.476.156-2.829.514-4.088 1.047l.093-.035c-1.595.635-2.94 1.305-4.222 2.071l.133-.074c-1.714.965-3.46 2.013-5.452 2.26-.001 0-.002 0-.003 0-.174 0-.315.141-.315.315 0 .145.098.267.232.304l.002.001c.067.033.145.052.228.052s.161-.019.231-.054l-.003.001c.038-.013.069-.035.094-.063l0 0c3.077-.524 5.699-2.621 8.493-3.9.998-.459 2.169-.851 3.386-1.116l.116-.021c1.227-.267 2.59-.393 3.67.404.147.131.357-.115.257-.283z"/><path d="m26.579 12.676c-1.111-1.09-3.297-.755-4.655-.482-1.977.481-3.715 1.168-5.326 2.058l.11-.056c-1.505.75-2.967 1.573-4.488 2.28q-.912.425-1.845.813-.372.157-.755.294l-.273.089-.105.026c-.012-.002-.027-.003-.041-.003-.171 0-.309.138-.309.309 0 .053.013.102.037.146l-.001-.002c.309.55 1.866-.346 2.212-.493 1.227-.524 2.417-1.096 3.602-1.699 1.576-.907 3.454-1.812 5.397-2.587l.307-.108c.87-.325 1.883-.566 2.933-.677l.055-.005c.057-.001.124-.002.191-.002.972 0 1.914.131 2.809.376l-.074-.017c.01.003.022.005.034.005s.024-.002.035-.005h-.001.026c.086-.011.151-.084.151-.172 0-.033-.009-.065-.026-.091v.001z"/><path d="m28.121 14.742c-.743-.193-1.603-.318-2.487-.346h-.019c-.925.043-1.783.129-2.627.258l.137-.017c-1.887.304-3.581.917-5.106 1.79l.074-.039c-1.573.839-3.041 1.887-4.671 2.621-.729.345-1.576.608-2.463.748l-.053.007c-.676.11-1.436.168-1.955.666-.033.032-.053.077-.053.127 0 .098.08.178.178.178.017 0 .034-.002.049-.007h-.001c1.447-.367 2.904-.446 4.299-1.007 1.666-.776 3.068-1.566 4.404-2.448l-.127.078c1.383-.86 2.988-1.536 4.698-1.939l.109-.022c.822-.163 1.8-.282 2.796-.333l.051-.002c.138-.013.299-.021.462-.021.373 0 .737.04 1.087.116l-.034-.006c.351.107.755.17 1.173.173h.002c.32-.011.419-.514.079-.577z"/><path d="m9.625 21.541c-.336-.446-1.237.073-1.573.336-.21.173.058.456.273.351.185-.095.407-.187.637-.263l.034-.01c.21-.063.477-.073.608-.273.02-.024.032-.054.032-.088 0-.019-.004-.038-.011-.055v.001z"/><path d="m43.832 5.646c-3.177.157-6.26-1.678-9.206-2.621-2.354-.776-5.887-1.316-7.675.917-.029.034-.047.079-.047.129 0 .11.089.199.199.199.03 0 .059-.007.085-.019h-.001c.575-.347 1.247-.683 1.947-.966l.097-.035c.515-.154 1.106-.242 1.718-.242.133 0 .265.004.396.012l-.018-.001c1.607.137 3.092.51 4.47 1.085l-.098-.036c1.499.524 2.957 1.185 4.493 1.604 1.153.315 2.579.729 3.717.21.027-.025.044-.061.044-.1 0-.07-.053-.128-.122-.136h-.001z"/><path d="m44.514 7.339c-.608-.129-1.313-.213-2.035-.23h-.015c-.831-.142-1.538-.309-2.228-.516l.131.034c-1.473-.404-2.91-.907-4.383-1.3-1.118-.337-2.404-.531-3.734-.531-.149 0-.297.002-.444.007l.021-.001c-1.4.073-2.406.624-3.57 1.321-.069.042-.114.117-.114.202s.045.16.113.201l.001.001.089.052c.043.026.094.041.149.041s.107-.015.151-.042l-.001.001c2.621-1.641 5.457-1.075 8.262-.262 1.384.404 2.758.849 4.168 1.159.991.22 2.553.64 3.507.152.039-.03.063-.077.063-.129 0-.079-.056-.144-.131-.159h-.001z"/><path d="m42.674 9.436c-.703-1.049-2.37-1.049-3.465-1.347-2.228-.603-5.541-1.94-7.57-.178-.055.057-.088.134-.088.219 0 .113.06.213.15.268l.001.001c.104.081.197.16.285.243l-.002-.002c.221.306.45.662.66 1.031l.032.06c.22.435.414.886.645 1.321.322.699.908 1.23 1.627 1.473l.019.006c.244.043.526.067.813.067s.568-.024.842-.071l-.029.004h.446c.013.02.031.036.052.047h.001c.024.01.052.016.081.016.061 0 .117-.026.155-.068l0 0c .377 0 .755 0 1.132 0 .002.044.039.079.084.079.016 0 .03-.004.042-.012l0 0 .131-.068c1.684.023 3.315.171 4.907.435l-.189-.026c.024.006.051.01.079.01.177 0 .322-.142.325-.319v0c-.12-1.203-.538-2.29-1.178-3.21l.015.022zm-6.291-1.462c-.645.524-1.447.902-2.097 1.405l.194-.231c.387-.518.861-.947 1.404-1.272l.022-.012zm-3.707.168c-.049.056-.099.107-.151.156l-.001.001-.147-.147c.137-.086.294-.164.459-.225l.018-.006zm.1.429l.147-.184c.139-.176.274-.373.396-.579l.013-.024c.198-.04.429-.066.664-.073h.007c-.451.247-.825.583-1.11.986l-.007.01zm.797 1.049l-.131-.184c.189-.199.356-.451.524-.64.289-.324.613-.607.967-.848l.018-.012c.017-.009.028-.027.028-.047 0-.03-.024-.054-.054-.054-.01 0-.019.003-.026.007l0 0c-.399.2-.743.427-1.057.689l.009-.007c-.228.194-.43.407-.606.64l-.007.01-.152-.199c.097-.2.205-.372.33-.53l-.005.006c.248-.277.525-.521.828-.729l.016-.01c.464.013.907.056 1.34.128l-.056-.008c-.465.21-.858.502-1.176.861l-.003.004c-.252.252-.488.524-.713.797zm.309 1.179l-.11-.184c.008-.013.013-.028.013-.045s-.005-.032-.013-.045l0 0c-.024-.038-.05-.07-.079-.1l0 0c .031 0 .079 0 .147-.089.312-.337.659-.634 1.038-.888l.021-.013c.675-.434 1.263-.897 1.803-1.41l-.005.005.571.142c-.241.159-.525.322-.818.466l-.047.021c-.482.278-.975.524-1.436.865-.199.126-1.096.818-1.106 1.263zm.189.278c.013.008.03.014.047.014s.034-.005.048-.014l0 0c .215-.178.304-.524.524-.755.371-.327.785-.624 1.227-.877l.037-.019c.493-.309 1.258-.629 1.63-1.138l.524.142c-.409.556-1.258.928-1.782 1.279-.708.477-1.573.907-1.945 1.714-.12-.108-.228-.225-.326-.35l-.005-.006zm.529.54c.373-.408.77-.779 1.195-1.116l.021-.016c.383-.278.792-.524 1.18-.781.554-.3 1.011-.712 1.355-1.209l.008-.013.524.152.199.052c-.807.524-1.667.965-2.469 1.494-.524.336-1.452.949-1.573 1.646-.168-.053-.314-.125-.447-.214l.006.004zm1.395.304v0c-.084.009-.182.014-.28.014s-.196-.005-.293-.015l.012.001c.178-.215.33-.451.524-.65.363-.344.762-.657 1.19-.93l.032-.019c.398-.273.807-.524 1.206-.802.168-.115.325-.236.482-.362s.178-.147.262-.22.126-.084.11-.131l.105-.058c.325.063.687.115 1.048.189-.594.476-1.268.895-1.989 1.228l-.06.025c-.912.447-1.688 1.027-2.339 1.725l-.004.005zm1.19-.057h-.524c.64-.515 1.36-1.033 2.107-1.512l.101-.06c.703-.334 1.297-.786 1.783-1.336l.005-.006c.301.066.564.153.814.262l-.028-.011c-.282.265-.614.481-.98.632l-.021.008c-.524.288-1.048.556-1.573.844-.654.297-1.21.696-1.676 1.183l-.002.002zm.687 0c .468-.362.995-.7 1.551-.989l.059-.028c.43-.252 1.872-.823 2.165-1.489.186.104.343.237.469.395l.002.003c.052.063.1.136.147.21-.835.331-1.54.683-2.211 1.086l.067-.037c-.461.259-.859.538-1.226.853l.01-.008c-.336-.005-.682-.011-1.028-.005zm3.077.115c.204-.168.393-.357.603-.524.319-.23.6-.464.863-.716l-.003.003c.094-.089-.047-.231-.142-.142-.309.263-.652.512-1.012.734l-.036.021c-.259.16-.479.353-.662.577l-.004.005c-.336 0-.676-.042-1.012-.058.246-.199.488-.404.739-.571.596-.404 1.284-.797 2.001-1.138l.096-.041c.367.603.638 1.308.771 2.061l.005.036c-.729-.121-1.463-.199-2.197-.257z"/><path d="m47.119 14.548c-.603-.037-1.206.052-1.819 0-.868-.094-1.652-.251-2.41-.47l.098.024c-.972-.284-2.144-.525-3.345-.675l-.115-.012c-.353-.033-.763-.053-1.177-.053-.797 0-1.578.071-2.336.206l.08-.012c-.991.163-2.291.461-2.972 1.263-.023.024-.036.057-.036.093 0 .075.061.136.136.136.011 0 .022-.001.032-.004h-.001c1.017-.278 1.94-.739 2.993-.933.631-.109 1.359-.171 2.1-.171.575 0 1.142.037 1.698.11l-.065-.007c1.326.152 2.621.571 3.9.855 1.012.22 2.343.451 3.297-.058.043-.03.071-.079.071-.135 0-.078-.055-.143-.128-.159h-.001z"/><path d="m49.851 16.692c-.202-.09-.438-.143-.687-.143-.098 0-.194.008-.288.024l.01-.001c-.043-.001-.094-.002-.145-.002-.33 0-.654.025-.97.074l.035-.005c-.079.027-.135.102-.135.189s.056.161.134.188h.001c.284.044.612.07.945.07.047 0 .095 0 .142-.002h-.007c.084.015.181.023.28.023.248 0 .483-.053.696-.148l-.011.004c.045-.029.074-.079.074-.136s-.029-.107-.073-.136h-.001z"/><path d="m41.646 19.638c-.348-.161-.755-.254-1.184-.254-.096 0-.192.005-.286.014l.012-.001c-.796 0-1.577.065-2.337.189l.083-.011c-.682.11-2.81.383-2.81 1.395h.037c.619-.865 2.06-1.022 3.02-1.164.567-.078 1.223-.123 1.889-.123.54 0 1.074.029 1.599.087l-.065-.006c.084.021.105-.089.042-.126z"/><path d="m44.598 20.477c-1.047-.169-2.255-.265-3.485-.265-.22 0-.439.003-.658.009l.032-.001c-1.358.052-2.553.613-3.869.818-.052 0-.042.1 0 .094 1.3-.163 2.537-.561 3.853-.592s2.731.257 4.089.094c.094-.011.131-.147.037-.157z"/><path d="m29.924 18.616c-.804-.318-1.736-.502-2.71-.502-.353 0-.701.024-1.041.071l.039-.004c-3.161.448-5.969 1.696-8.293 3.53l.036-.028c-.047.037 0 .11.063.084 2.291-1.19 4.409-2.464 6.983-2.967.6-.131 1.289-.207 1.996-.207.578 0 1.145.05 1.696.147l-.058-.009c.666.121 1.26.338 1.802.639l-.03-.015c.058.031.891.661.902.64-.004.008-.007.017-.007.026 0 .029.023.052.052.052.001 0 .001 0 .002 0h .047c.001 0 .002 0 .003 0 .036 0 .066-.024.076-.057v-.001c.22-.619-1.174-1.253-1.557-1.4z"/><path d="m30.49 20.734c-1.122-.178-2.239-.393-3.376-.498-.206-.013-.447-.02-.69-.02-1.037 0-2.042.136-2.998.39l.081-.018c-2.551.514-4.811 1.483-6.797 2.826l.066-.042c-.016.011-.026.028-.026.048 0 .032.026.058.058.058.009 0 .018-.002.026-.006l0 0c1.855-.979 4.015-1.833 6.274-2.448l.227-.053c1.016-.287 2.183-.451 3.388-.451.04 0 .08 0 .12.001h-.006c1.227.037 2.417.32 3.67.299.011-.021.021-.079-.016-.084z"/><path d="m28.682 21.588c-.116-.005-.252-.008-.389-.008-.967 0-1.899.149-2.774.424l.065-.018c-1.159.257-2.349.409-3.512.655-2.627.535-4.931 1.259-7.126 2.188l.243-.091c-.079.031 0 .163.058.136 2.197-.661 4.377-1.342 6.621-1.845 1.169-.262 2.354-.44 3.528-.671s2.186-.524 3.297-.713c.031-.011.016-.058-.011-.058z"/></symbol><symbol id="icon-diploma" viewBox="0 0 28 32"><path d="m14.502 18.32c-.166-.675-.909-1.066-1.539-1.13-.071-.008-.154-.012-.238-.012-.438 0-.848.124-1.196.338l.01-.006c-.435.308-.745.768-.852 1.302l-.002.013c-.041.048-.081.101-.118.157l-.004.006c-.038.061.022.118.08.122-.067.81.339 1.6 1.456 1.6 1.21.016 2.739-1.034 2.403-2.39zm-.505-.029c.029.05.057.109.08.171l.003.008c-.381.234-.81.39-1.2.605l.32-.179c.315-.149.582-.353.797-.602l.003-.003zm-2.279-.403c.25-.103.547-.194.854-.257l.033-.006c-.195.083-.387.176-.576.278s-.467.246-.698.394c.109-.158.237-.293.383-.407l.004-.003zm2.192 1.395c-.021-.052-.072-.088-.131-.088-.027 0-.053.008-.075.021h.001c-.138.076-.256.171-.354.283l-.001.002c-.038.051 0 .144.064.131.108-.018.205-.053.293-.102l-.005.002c-.116.114-.241.219-.375.314l-.009.006c-.321.236-.724.378-1.161.378-.097 0-.193-.007-.287-.021l.011.001c-.698-.09-.918-.691-.81-1.28.32-.186.64-.448.96-.64.358-.234.736-.432 1.114-.64.138.034.26.084.372.148l-.007-.004c-.64.15-1.466.429-1.859.96-.018.021-.029.049-.029.08 0 .069.056.125.125.125.014 0 .027-.002.039-.006h-.001c.339-.11.634-.255.902-.437l-.012.008c.346-.192.688-.384 1.03-.582.064.053.12.109.171.171l.002.002c-.325.252-.698.467-1.098.629l-.031.011c-.47.184-.875.401-1.249.66l.02-.013c-.032.018-.053.051-.053.089 0 .057.046.102.102.102.016 0 .03-.003.044-.01h-.001c.463-.121.869-.286 1.246-.497l-.026.014c-.247.133-.458.296-.639.488l-.001.001c-.045.048 0 .141.074.109.708-.337 1.315-.701 1.882-1.117l-.032.022c.002.024.003.053.003.081 0 .227-.078.435-.21.599l.001-.002z"/><path d="m16.186 20.8c-.003-.048-.044-.086-.093-.086-.001 0-.002 0-.004 0h0c-.416.035-.438.467-.416.81 0 .218-.022.285-.24.371-.161.086-.353.137-.556.137-.138 0-.27-.023-.393-.066l.008.003c-.017-.007-.036-.012-.057-.012-.08 0-.144.064-.144.144 0 .028.008.054.022.076v-.001c.119.201.334.334.581.334.049 0 .097-.005.143-.015l-.004.001c.366-.02.698-.154.963-.367l-.003.003c.122-.134.196-.314.196-.51 0-.028-.001-.055-.004-.082v.003c.007-.111.011-.241.011-.371s-.004-.26-.012-.389l.001.018z"/><path d="m25.478 4.022c-2.314-.717-4.579-1.619-6.874-2.403-2.096-.717-4.205-1.488-6.445-1.584-.659-.029-1.44-.147-1.984.32-.329.307-.578.697-.712 1.137l-.005.018c-.32.525-.614 1.091-.925 1.619-.787 1.338-1.472 2.707-2.125 4.118-1.341 2.877-3.082 5.552-4.349 8.474-.566 1.312-1.341 2.518-1.83 3.862-.23.64-.483 1.414.298 1.715.384.147.842.154 1.242.266.893.246 1.798.554 2.669.864 1.037.371 2.355 1.133 3.52 1.098-.96.915-1.92 1.814-2.922 2.656-.065.048-.106.125-.106.211 0 .076.032.144.084.192l0 0c .336.374 1.206 1.126 1.853 1.152-.47.624-.915 1.329-1.301 2.069l-.04.084c-.014.031-.022.067-.022.106 0 .143.114.259.255.262h0c .864-.019 1.622-.694 2.384-1.021 1.078-.461 1.181 2.054 1.533 2.643.131.218.413.099.477-.096.371-1.146.694-2.31 1.005-3.475.149.042.321.066.497.066.073 0 .145-.004.215-.012l-.009.001c.762 0 1.469-.186 2.24.029.15.042.259-.099.266-.234 0-.019 0-.04 0-.062 0-.881-.06-1.747-.178-2.596l.011.098c-.083-.826.026-1.645-.246-2.445 0-.016-.013-.029-.029-.029s-.029.013-.029.029v0c0 .029 0 .058 0 .083-.004 0-.008-.001-.012-.001-.024 0-.045.009-.062.023l0 0c-.112.093-.224.182-.339.269.173-.147.311-.328.406-.534l.004-.01c.016-.035-.035-.077-.061-.042-.216.265-.488.476-.799.615l-.014.005c.168-.147.308-.32.414-.515l.005-.01c.003-.008.005-.017.005-.026 0-.035-.029-.064-.064-.064-.013 0-.025.004-.035.01l0 0c-.23.144-.442.32-.659.499-.081.061-.152.121-.219.184l.002-.002.026-.086c.12-.124.247-.238.382-.343l.008-.006c.214-.16.438-.32.666-.458.018.001.04.001.061.001.158 0 .309-.026.451-.075l-.01.003c.068-.024.116-.088.116-.163 0-.021-.004-.041-.01-.059v.001c-.08-.186-.08-.378-.272-.486-.014-.007-.03-.011-.047-.011-.042 0-.078.024-.096.058v.001c-.019.051-.03.11-.03.171 0 .076.017.148.047.213l-.001-.003c-.259.051-.554.022-.803.077-.056.014-.105.033-.151.056l.004-.002c.035-.253.032-.586-.186-.64h-.048c.64-.052 1.229-.229 1.756-.508l-.025.012c1.68-.896 2.211-3.2.813-4.544.168-.15.35-.294.542-.426l.018-.012c.157-.112.64-.541.838-.448.186.105.344.234.478.385l.002.002c.211.211.358.4.026.557-.246.115-.64.218-.64.55.005.063.057.112.121.112.002 0 .005 0 .007 0h0c .242-.048.456-.136.648-.257l-.008.005c-.001.014-.002.03-.002.046s.001.032.002.049v-.002c.015.286.094.55.222.784l-.005-.009c-.358.074-.778.234-.845.544-.002.011-.003.023-.003.036 0 .118.096.214.214.214.062 0 .117-.026.157-.068l0 0c .025-.026.051-.051.079-.073l.001-.001c-.057.171-.09.369-.09.574 0 .013 0 .026 0 .039v-.002c.003.027.004.058.004.09 0 .142-.028.277-.08.4l.003-.007c-.07.099-.406-.122-.515-.173-.192-.09-.384.176-.208.32.397.32 1.027.438 1.139-.195.031-.213.051-.461.054-.713v-.004c.001-.114.014-.224.037-.33l-.002.01c.026-.063.049-.139.066-.218l.002-.009c.11-.029.239-.051.371-.06h.007c.109-.011.194-.102.194-.213 0-.062-.027-.118-.069-.158l0 0c-.106-.099-.566-.96-.39-1.075.015-.009.025-.025.025-.044 0-.009-.002-.017-.006-.024l0 0c .052-.056.091-.125.111-.202l.001-.003c.093-.461-.563-.934-.88-1.142-.093-.053-.204-.084-.322-.084-.177 0-.338.07-.456.183l0 0c-.01-.117-.108-.208-.226-.208-.004 0-.007 0-.011 0h .001c-.371 0-.602-.259-.922-.381h-.019c.006-.03.01-.064.01-.099 0-.117-.041-.224-.11-.308l.001.001c-.39-.445-1.322-.138-1.818-.093-.082.007-.15.062-.176.136v.001c-.007-.002-.015-.003-.024-.003s-.017.001-.025.003h.001l-.048.026c-.03.016-.053.042-.067.073v.001c-.32.285-.906.192-1.28.355-.163-.097-.359-.154-.568-.154-.061 0-.122.005-.181.014l.006-.001c-.589.096-1.12.509-1.635.787-.065.045-.108.119-.108.204 0 .03.005.059.015.086l-.001-.002c.044.102.069.22.069.344 0 .165-.045.319-.123.451l.002-.004c-.015.032-.024.069-.024.109 0 .059.02.114.053.157v-.001h-.026c-.135.105-.234.252-.277.42l-.001.005c-.157.515-.122 1.091-.397 1.568-.019.033-.03.072-.03.113 0 .091.054.17.131.206l.001.001c.086.029.166.058.243.077-.017.078-.027.167-.027.258 0 .124.018.243.052.356l-.002-.009c.032.214-.077.454 0 .656s.336.198.502.211c.07 0 .138 0 .205 0-.069.064-.128.137-.177.216l-.003.005c-.208.342-.016.755.211 1.04-.329.227-.615.481-.866.766l-.004.005c-.027-.032-.065-.054-.108-.061h-.001c-1.194-.205-2.346-.81-3.478-1.226-.939-.399-2.067-.768-3.232-1.045l-.151-.03c-.822-.157-.694-.563-.438-1.28.279-.71.558-1.296.872-1.861l-.04.079c.573-1.11 1.066-2.24 1.6-3.379 1.107-2.352 2.531-4.531 3.61-6.896.544-1.194 1.104-2.374 1.728-3.52.278-.515.57-1.027.838-1.549.102-.179.368-1.194.534-1.325.021-.015.036-.038.041-.063v-.001c.254-.301.629-.493 1.048-.502h.002c.101-.003.22-.005.34-.005.878 0 1.734.094 2.559.272l-.079-.014c1.987.378 3.962 1.194 5.866 1.859 1.741.608 3.472 1.235 5.216 1.83.573.195 1.171.32 1.734.528.822.32-.221 1.238-.525 1.619-.941 1.187-1.6 2.701-2.304 4.029-.941 1.75-1.837 3.52-2.736 5.302s-1.798 3.552-2.71 5.322l-1.338 2.592c-.214.416-.442.822-.64 1.245-.074.154-.138.352-.211.547-.116.152-.264.273-.434.355l-.007.003c-.13.045-.281.071-.437.071-.176 0-.345-.033-.5-.094l.009.003c-.006-.003-.013-.004-.02-.004-.027 0-.048.021-.048.048 0 .014.006.027.016.036l0 0c .188.218.465.355.773.355.094 0 .184-.013.271-.036l-.007.002c.085-.025.158-.054.228-.09l-.007.003c.32-.083.477-.352.666-.678.586-1.024 1.126-2.074 1.68-3.114 1.165-2.195 2.269-4.426 3.395-6.64 1.056-2.115 2.128-4.202 3.264-6.275.532-1.074 1.087-1.989 1.71-2.852l-.04.058c.339-.429.848-.922.915-1.491.118-.922-1.667-1.114-2.243-1.293zm-12.604 18.81c.125-.05.27-.08.422-.08h0c-.229.099-.42.198-.604.31l.021-.012c.022-.093.08-.17.158-.217l.002-.001zm-5.056 1.558c0 .64-.214 1.43.16 1.882l-.262.336c.096-.64-.064-1.36-.147-1.99zm-.676.618l.195-.176c0 .64-.045 1.37.173 1.939.008.021.023.037.041.048l0 0-.262.336c.009-.095.015-.206.015-.318 0-.242-.025-.478-.073-.706l.004.022c-.056-.339-.09-.734-.096-1.137v-.006zm-1.6 1.392l.122-.102c.002.066.012.128.03.187l-.001-.005c.019.053.069.091.127.091.066 0 .12-.047.132-.109v-.001c.001-.01.001-.021.001-.032s0-.022-.001-.034v.002l.042.15c.022.083.042.157.067.227-.195-.115-.363-.237-.519-.374l.004.003zm.784-.25c-.034-.106-.089-.197-.16-.272l0 0 .221-.192c-.038.14-.061.301-.061.467v0zm .416.41c-.063-.223-.1-.479-.1-.743 0-.135.01-.268.028-.398l-.002.015.221-.195c-.031.189-.049.407-.049.629 0 .51.094.997.267 1.446l-.009-.028-.214-.086c-.022-.224-.099-.432-.141-.64zm7.136.243c-.008-.009-.02-.015-.034-.015s-.025.006-.034.015l0 0c-.075.051-.16.097-.25.134l-.01.004c-.096.063-.178.125-.256.192l.004-.003c-.164.113-.295.265-.381.441l-.003.007c-.005.01-.008.023-.008.036 0 .046.037.083.083.083.009 0 .017-.001.025-.004h-.001c.201-.072.373-.181.515-.32l0 0c .074-.063.14-.131.199-.205l.002-.003c.064-.086.083-.192.147-.282v0c .019.352.038.701.035 1.046-.327-.055-.704-.086-1.088-.086s-.761.031-1.128.091l.04-.005c.362-.186.704-.499 1.043-.71.363-.211.656-.504.861-.856l.006-.011c.003-.005.004-.011.004-.017 0-.021-.017-.038-.038-.038-.012 0-.023.005-.03.014l0 0c-.282.362-.79.557-1.187.762-.339.176-.816.416-.906.822-.001.004-.001.008-.001.013 0 .021.008.04.02.054l0 0-.266.038.122-.448c.387-.289.726-.57 1.05-.867l-.01.009c.364-.282.685-.584.976-.914l.007-.008c.012-.017.02-.038.02-.061 0-.057-.046-.102-.102-.102-.028 0-.053.011-.071.029l0 0c-.368.357-.766.688-1.188.987l-.031.021c-.166.128-.352.259-.512.41l.144-.528c.322-.218.602-.436.867-.67l-.009.008c.358-.293.758-.572 1.177-.82l.045-.025c.019-.011.036-.026.048-.044l0 0c .016.598.067 1.213.102 1.824zm-2.086-.809l.051-.182c.132-.041.246-.094.352-.16l-.006.004c-.141.102-.272.214-.397.333zm1.968-1.168c-.027-.048-.077-.079-.135-.079-.027 0-.052.007-.074.019h.001c-.275.154-.57.32-.861.515l.176-.138c.337-.248.631-.524.89-.831l.006-.008c-.003.173-.003.336-.003.522zm.054-1.258c0 .115-.022.234-.032.349-.014.008-.026.019-.035.032l0 0c-.301.363-.648.673-1.035.927l-.018.011c-.214.154-.496.291-.739.458.032-.115.064-.23.096-.349.353-.219.66-.457.94-.722l-.003.002c.301-.224.576-.461.838-.71zm-1.254.579c.156-.112.339-.228.528-.335l.032-.017c.077-.048.147-.096.218-.147l-.602.464c-.199.145-.375.293-.539.452l.001-.001.038-.131c.118-.083.221-.198.336-.285zm-.272-1.478l-.048.15c-.051.03-.095.064-.135.103l0 0c-.032-.038-.067-.074-.106-.109-.148-.127-.328-.223-.525-.273l-.009-.002c-.123-.03-.264-.047-.409-.047-.062 0-.124.003-.184.009l.008-.001c-.063.011-.135.017-.208.017s-.145-.006-.216-.018l.008.001c.19-.23.337-.504.422-.804l.004-.016c.388.151.837.238 1.306.238.125 0 .248-.006.37-.018l-.015.001c-.243.032-.224.608-.25.765zm-2.352.803l-.093.154c-.01-.126-.015-.273-.015-.421s.006-.295.016-.44l-.001.019h.035c-.001.029-.002.063-.002.097 0 .209.025.411.073.605l-.004-.017zm-.419-1.315c-.496-.432-.029-.714.211-1.066.091-.009.174-.025.254-.047l-.01.002c.167.183.361.337.577.458l.012.006c-.078.11-.15.235-.211.366l-.006.015c-.189.371-.467.57-.816.262zm5.165-6.611v-.026c.177.204.407.357.668.439l.01.003c-.135.122-.231.284-.271.468l-.001.006c-.075.068-.142.141-.202.22l-.003.004c-.179-.132-.384-.246-.602-.333l-.019-.006c.156-.223.297-.478.409-.747l.01-.027zm-1.6-.468c.25-.032.496-.077.749-.099.057-.009.124-.014.191-.014.126 0 .247.018.362.052l-.009-.002c.144.054-.019.349-.058.435-.109.246-.32.486-.403.749-.281-.077-.604-.122-.937-.122-.003 0-.005 0-.008 0h0c .051-.293.086-.637.096-.988v-.01zm1.228 2.016c1.718.826.829 2.95-.419 3.706s-3.52.55-3.776-1.184c-.016-.104-.025-.225-.025-.347 0-.583.204-1.119.543-1.539l-.004.005c1.088-.822 2.192-1.338 3.664-.64zm-2.672-1.414c.349-.096.733-.112.989-.32-.012.095-.019.205-.019.316 0 .158.014.312.041.462l-.002-.016c-.362.03-.697.104-1.013.217l.028-.009c.179-.221.083-.451-.022-.65zm-2.774 5.12h-.128c.004-.078.007-.17.007-.262s-.002-.184-.007-.275l.001.013c-.037-.221-.083-.411-.14-.595l.009.032c.1-.006.191-.042.263-.1l-.001.001c.031-.025.051-.063.051-.106s-.02-.081-.051-.105l0 0c-.084-.064-.184-.111-.293-.134l-.005-.001c.094-.287.162-.621.191-.966l.001-.017c.019-.205.066-.394.136-.571l-.005.014c.054-.125.205-.17.32-.25.087.023.188.035.291.035.149 0 .293-.027.425-.077l-.008.003c.049-.019.083-.065.083-.12 0-.014-.002-.028-.007-.041v.001c-.109-.32-.413-.291-.704-.32.035-.113.056-.242.056-.376 0-.113-.014-.223-.042-.327l.002.009c.301-.173.592-.358.909-.502.173-.086.374-.148.586-.175l.01-.001c.002 0 .004 0 .006 0 .127 0 .24.06.313.153l.001.001c.088.216.196.403.324.573l-.004-.006c.018.023.044.04.073.048h.001c-.386.147-.719.352-1.005.607l.003-.003c-.171.135-.322.284-.453.449l-.004.005c-.414.539-.663 1.224-.663 1.966 0 .21.02.415.058.614l-.003-.02c.061.277.159.522.291.744l-.006-.012c-.128 0-.259.038-.381.058-.135.023-.29.036-.448.036-.018 0-.036 0-.054 0h .003zm.058 2.506c.188-.191.358-.4.509-.624l.01-.016c.045.02.098.039.153.053l.007.001c-.102.219-.161.475-.161.746 0 .059.003.116.008.174l-.001-.007c-.002.038-.003.082-.003.126 0 .164.013.326.037.483l-.002-.018-.061.093c0-.061 0-.122-.019-.179-.033-.388-.102-.745-.205-1.087l.01.038c0-.019-.016-.035-.035-.035s-.035.016-.035.035v0c-.034.245-.053.529-.053.817 0 .087.002.174.005.261v-.012c-.001.032-.001.069-.001.106 0 .175.011.347.032.515l-.002-.02-.122.205c-.022-.157-.045-.32-.051-.464-.016-.41.019-.816-.019-1.194zm-.288.3c0 .138 0 .275-.022.413-.018-.117-.042-.219-.074-.318l.004.014zm.169 2.436c.675-.867 1.546-1.984 1.885-3.078.043.002.094.004.146.004s.102-.001.153-.004h-.007c.022-.002.049-.003.075-.003.288 0 .548.124.727.322l.001.001c.059.083.136.15.227.194l.004.002c-.794 2.442-1.35 4.976-2.128 7.437-.195-.87-.256-2.019-1.059-2.294-.851-.291-1.741.656-2.586.998.83-1.358 1.676-2.528 2.6-3.629l-.037.045zm-.691-.928c.004-.067.007-.145.007-.224 0-.252-.026-.499-.075-.737l.004.023.272-.272c.009.166.015.361.015.557s-.005.39-.016.584l.001-.027c-.004.04-.006.086-.006.133 0 .201.039.393.109.569l-.004-.01-.214.275c-.056-.263-.088-.566-.09-.876v-.001z"/><path d="m14.72 1.763c-.778-.461-1.789-.534-2.672-.64-.291-.032-.886-.195-1.136.067-.538.576-.698 1.37-1.05 2.042-.512.986-1.155 1.869-1.571 2.902 0 .001 0 .003 0 .004 0 .016.013.029.029.029.008 0 .014-.003.02-.008l0 0c .733-1.344 1.728-2.451 2.336-3.869.422-.982 1.088-.842 1.99-.739.582.12 1.283.214 1.998.263l.05.003c.032.003.035-.042.006-.054z"/><path d="m26.035 5.44c-.742-.426-1.68-.55-2.515-.662-.002 0-.005 0-.008 0-.037 0-.067.03-.067.067 0 .025.013.046.033.058l0 0c .691.387 1.514.4 2.24.736-.547.669-1.074 1.414-1.55 2.194l-.05.088c-.685 1.072-1.549 2.064-2.035 3.251-.029.067.061.134.109.074 1.386-1.782 2.384-3.885 3.894-5.568.019-.026.031-.059.031-.095 0-.06-.033-.113-.081-.141h-.001z"/><path d="m3.744 15.514c-.423.486-.781 1.044-1.049 1.651l-.017.042c-.32.656-.717 1.254-1.037 1.92-.387.784.022 1.504.906 1.427.049-.006.087-.048.087-.098 0-.037-.021-.07-.051-.087h-.001c-.566-.352-.736-.666-.458-1.242.163-.342.378-.659.56-.992.454-.819.64-1.757 1.098-2.579.016-.038-.019-.061-.038-.042z"/><path d="m20.31 7.437c-.188.098-.427.206-.673.302l-.054.018c-.177.067-.387.124-.603.16l-.021.003q-.73.15-.378-.605c.161-.143.281-.329.344-.539l.002-.008c.002-.009.003-.02.003-.031 0-.095-.077-.173-.173-.173-.019 0-.038.003-.055.009h.001c-.398.101-.702.418-.783.816l-.001.007-.15.064c-.285.118-.608.061-.694-.102.422-.163.742-.39.432-.659s-.848.096-.976.534c-.211.038-.419.061-.582.086-.528.08-1.021-.214-1.069-.64.396-.105.744-.264 1.056-.472l-.013.008c.32-.259 1.6-1.28.781-1.654s-2.032 1.2-2.326 1.77c-.019.035-.038.078-.055.123l-.003.008c-.832.182-1.981.294-1.555-.592.002-.006.004-.013.004-.02 0-.032-.026-.058-.058-.058-.02 0-.038.01-.048.026l0 0c-.675 1.142.474 1.242 1.6 1.014.093.64 1.162.941 1.741.819.054 0 .253-.051.493-.112.009.057.027.109.052.156l-.001-.002c.256.445.835.368 1.357.099.03.13.083.245.155.345l-.002-.003c.32.454 1.053.298 1.654.07 0 .038-.019.074-.029.115-.032.141.179.262.266.131.145-.239.33-.438.548-.594l.006-.004c.227-.147.045-.534-.192-.416zm-5.232-1.338c.331-.411.714-.763 1.143-1.051l.018-.012c.499-.32.093.218.032.285-.182.195-.375.373-.581.536l-.011.008c-.188.175-.412.314-.658.405l-.014.004-.061.019c.039-.074.082-.138.132-.197l-.001.001z"/><path d="m18.88 11.36c-.64-.746-1.891-.96-2.8-1.206-1.341-.381-2.88-.685-4.099-1.37-.397-.224-.701.403-.32.64 1.139.656 2.461.816 3.683 1.238.47.166.96.278 1.45.406.64.17 1.226.496 1.862.64.182.051.371-.189.224-.349z"/><path d="m14.678 11.501c-.573-.509-1.434-.73-2.157-.96-.347-.135-.749-.213-1.169-.213-.167 0-.331.012-.491.036l.018-.002c-.09.034-.152.119-.152.219 0 .069.03.132.078.174l0 0c .32.246.736.195 1.107.32.858.259 1.661.698 2.512.941.294.067.458-.333.253-.515z"/><path d="m18.381 12.835c-.141-.422-.717-.541-1.101-.675-.486-.186-1.034-.422-1.562-.362-.266.032-.403.448-.109.56.499.189 1.014.32 1.51.512.355.147.822.419 1.184.176.052-.033.086-.09.086-.155 0-.02-.003-.04-.009-.058v.001z"/></symbol><symbol id="icon-email" viewBox="0 0 32 32"><path d="m28.227 31.991h-24.736c-1.926-.005-3.485-1.565-3.491-3.49v-14.98c.002-1.066.482-2.02 1.237-2.659l.005-.004 11.423-9.672c.867-.742 2.001-1.194 3.241-1.194s2.375.452 3.248 1.2l-.007-.006 11.375 9.672c.756.644 1.233 1.598 1.233 2.662 0 0 0 .001 0 .001v0 14.979c-.005 1.929-1.57 3.491-3.5 3.491-.01 0-.02 0-.03 0zm-12.326-30.109c0 0 0 0 0 0-.774 0-1.481.281-2.027.747l.004-.004-11.423 9.663c-.352.297-.574.739-.574 1.232 0 0 0 .001 0 .001v0 14.979c.005.886.723 1.604 1.608 1.609h24.737c.889 0 1.609-.72 1.609-1.609v0-14.979c0-.003 0-.006 0-.009 0-.489-.218-.927-.562-1.222l-.002-.002-11.394-9.654c-.529-.456-1.218-.738-1.973-.753h-.003z"/><path d="m15.779 22.798c-.17-.001-.328-.046-.466-.125l.005.002-12.232-6.784c-.287-.166-.478-.473-.478-.823 0-.524.425-.948.948-.948.173 0 .335.046.475.127l-.005-.002 11.761 6.539 11.761-6.539c.135-.079.297-.125.47-.125.524 0 .948.425.948.948 0 .351-.19.657-.473.821l-.005.002-12.232 6.784c-.133.077-.293.122-.464.122-.006 0-.011 0-.017 0h .001z"/><path d="m23.438 18.272c-.52 0-.941-.421-.941-.941v0-5.956h-13.238v5.956c0 .52-.421.941-.941.941s-.941-.421-.941-.941v0-6.897c0-.52.421-.941.941-.941v0h15.12c.52 0 .941.421.941.941v0 6.897c0 .52-.421.941-.941.941z"/><path d="m20.116 14.829h-8.468c-.52 0-.941-.421-.941-.941s.421-.941.941-.941v0h8.468c.52 0 .941.421.941.941s-.421.941-.941.941z"/><path d="m20.116 17.322h-8.468c-.52 0-.941-.421-.941-.941s.421-.941.941-.941v0h8.468c.52 0 .941.421.941.941s-.421.941-.941.941z"/></symbol><symbol id="icon-envelope" viewBox="0 0 42 32"><path d="m41.145 5.798c-.209-.082-.45-.129-.703-.129-.078 0-.154.004-.229.013l.009-.001c-.836 0-1.671-.063-2.477-.104l-4.278-.217c-.6-1.633-1.388-3.047-2.359-4.312l.028.038c-.693-.973-1.508-1.379-2.644-.856-1.617.739-3.171 1.642-4.787 2.402-1.742.819-3.543 1.613-5.322 2.381-.677 0-1.358.038-2.034.067-1.475.063-2.924.309-4.395.388-.769.042-1.633-.096-2.302.38s-.51 1.028-.042 1.525c.113 1.003.13 2.001.163 3.008-1.792.677-3.401 1.78-4.963 2.874-.836.589-1.671 1.199-2.507 1.796-.56.418-1.182.681-1.717 1.124-1.186.978-.338 2.302.326 3.292 1.253 1.855 2.862 3.442 4.178 5.255 1.228 1.696 2.348 3.472 3.597 5.155.512.692 1.016 1.299 1.551 1.878l-.013-.015c.418.439 1.007.259 1.512.138.744-.18 1.383-.785 2.009-1.195q1.37-.898 2.77-1.755c2.027-1.163 3.762-2.342 5.401-3.637l-.091.07c.031-.025.056-.055.074-.09l.001-.002c2.924.142 5.849.071 8.773 0 1.671-.038 3.363-.209 5.042-.18 1.362.025 2.862.272 4.132-.351.802-.393 1.09-1.429 1.228-2.227.211-1.316.35-2.859.384-4.428l.001-.038c.138-3.342.276-6.747.292-10.101.025-.739.155-1.75-.606-2.147zm-19.455-1.562c1.579-.585 3.087-1.345 4.595-2.089.597-.288 1.178-.581 1.755-.915.965-.56 1.717-.79 2.473.201.873 1.112 1.606 2.392 2.138 3.771l.034.101c-4.211-.213-8.43-.393-12.641-.355.564-.23 1.111-.514 1.646-.714zm-11.472 2.243c.338-.238.982-.159 1.374-.163 1.441 0 2.899-.288 4.34-.376 3.547-.213 7.102-.096 10.669 0s7.148.263 10.715.443c.81.042 1.617.075 2.427.125.205 0 .397 0 .564 0-.355.321-.74.633-1.142.925l-.04.028c-.618.485-1.174 1.078-1.767 1.596-1.32 1.157-2.699 2.248-4.056 3.342-1.032.835-2.022 1.738-3.037 2.603-1.191 1.015-2.678 2.089-4.328 1.755-1.433-.288-2.682-1.462-3.76-2.373-1.082-.91-2.283-1.762-3.552-2.514l-.124-.068c-2.436-1.454-4.871-2.924-7.323-4.336-.171-.071-1.337-.719-.961-.986zm2.649 23.791c-.451.309-1.633 1.312-2.193.714-.589-.649-1.156-1.353-1.682-2.089l-.048-.07c-1.007-1.379-1.93-2.811-2.924-4.207-.927-1.316-1.955-2.532-3.004-3.76-.549-.637-1.087-1.337-1.585-2.066l-.053-.081c-.291-.357-.506-.787-.614-1.257l-.004-.021c-.063-.522.597-.89.948-1.12 2.703-1.755 5.222-3.705 8.075-5.214 0 .071 0 .146 0 .217.088 1.65.418 3.288.66 4.917.251 1.734.188 3.455.297 5.197.054.835.084 2.331.94 2.828.756.418 1.759.359 2.598.393 1.851.075 3.697.297 5.539.46.355.033.71.054 1.065.079-2.582 1.817-5.397 3.284-8.017 5.08zm27.885-18.084c-.1 2.364-.046 4.729-.184 7.102-.058 1.206-.179 2.327-.362 3.428l.023-.169c-.255 1.466-1.232 1.717-2.582 1.755-1.161.029-2.306-.084-3.467 0-1.308.075-2.619.117-3.931.15-2.611.063-5.234.109-7.845.025-2.419-.079-4.825-.418-7.24-.568-.915-.063-1.922 0-2.82-.209-.99-.251-.806-2.711-.835-3.48-.102-2.539-.37-4.932-.795-7.271l.048.316c-.28-1.784-.276-3.584-.56-5.356.464.325.998.649 1.554.936l.079.037c1.161.639 2.256 1.408 3.401 2.089 1.533.894 3.079 1.759 4.595 2.711l.13.084c-1.571 1.441-3.1 2.924-4.595 4.441-1.367 1.299-2.534 2.791-3.464 4.434l-.049.095c-.017.028-.027.062-.027.098 0 .106.086.192.192.192.036 0 .07-.01.099-.027h-.001c.769-.455 1.253-1.216 1.784-1.909.67-.843 1.338-1.595 2.045-2.308l-.002.002c1.516-1.558 3.167-2.987 4.65-4.574 1.83 1.399 3.434 3.342 5.849 3.547 1.709.146 3.229-.978 4.541-2.16.493.526 1.041.99 1.637 1.387l.034.021c.769.543 1.537 1.145 2.277 1.796.764.706 1.46 1.458 2.095 2.261l.031.041c.681.835 1.303 1.801 2.248 2.335.015.008.034.013.053.013.062 0 .113-.05.113-.113 0-.009-.001-.018-.003-.027v.001c-.622-1.775-2.415-3.522-3.739-4.804-.71-.656-1.479-1.282-2.284-1.86l-.072-.049c-.574-.495-1.204-.982-1.86-1.435l-.074-.048c.368-.343.714-.673 1.044-.969 1.149-1.032 2.369-1.993 3.559-2.974 1.379-1.132 2.64-2.465 4.077-3.513.293-.211.551-.433.788-.676l.001-.001c.011.06.019.131.021.203v.002c.067 1.671-.104 3.338-.175 5.001z"/><path d="m8.869 15.72c-.255-.597-.978-1.608-1.725-1.613-.994 0-1.696.861-2.448 1.391-.622.418-1.579.418-1.542 1.387.038.401.204.757.457 1.033l-.001-.001c-.398.096-.746.271-1.041.509l.005-.004c-.089.059-.147.159-.147.272 0 .053.013.103.035.147l-.001-.002c.311.823.922 1.472 1.697 1.826l.02.008c.965.326 1.604-.363 2.381-.835.46-.284 1.295-.664 1.445-1.253.018-.063.028-.134.028-.208 0-.36-.238-.664-.565-.763l-.006-.001.263-.138c.652-.368 1.508-.907 1.145-1.755zm-1.704-.718c.235.075.434.207.588.379l.001.001c.051.051.099.106.143.163l.003.004c-.029-.024-.066-.039-.107-.039-.067 0-.125.039-.151.096v.001c-.142.259-.272.526-.418.794-.107.169-.193.366-.247.574l-.003.015-.113.058c-.239.129-.438.254-.629.389l.02-.013c.063-.163.121-.326.184-.476.28-.656.48-1.303.731-1.947zm-.205-.026c-.264.424-.542.936-.793 1.464l-.042.099c-.242.408-.455.88-.613 1.375l-.014.049-.067.05c-.142 0-.226.038-.246.079l-.029-.025c.163-.301.272-.635.418-.944.259-.568.551-1.124.798-1.7.005-.014.009-.03.009-.047 0-.067-.051-.122-.117-.129h-.001c.191-.152.431-.252.693-.271zm-2.01 1.383c0-.042.021-.121.042-.196.209-.106.388-.22.555-.349l-.008.006c.217-.171.418-.347.622-.497-.323.404-.619.859-.868 1.341l-.022.046c-.184.31-.348.669-.473 1.046l-.011.04-.063-.05c-.029-.025-.088-.088-.163-.171.063-.18.121-.363.18-.543s.146-.447.205-.677zm-.923.301c.188-.119.411-.241.641-.351l.04-.017c-.05.109-.092.213-.117.272-.113.234-.213.472-.313.71-.109-.113-.225-.217-.348-.312l-.007-.006c-.012-.027-.018-.059-.018-.092 0-.088.047-.165.118-.208l.001-.001zm3.117 1.387c.493.334.088.56-.138.723-.322.238-.685.418-1.024.627-.51.317-.969.835-1.617.635-.559-.256-.997-.695-1.247-1.238l-.006-.016c.242-.205.51-.376.748-.585.279.252.606.456.964.598l.022.008c.026.009.055.013.086.013s.06-.005.088-.014l-.002.001c.053.012.113.019.175.019s.123-.007.181-.02l-.006.001c.349-.095.65-.262.9-.486l-.002.002c.202-.156.428-.306.666-.437l.027-.014c.049.072.109.133.177.182l.002.001zm.835-2.243c.007-.019.011-.042.011-.065s-.004-.045-.011-.066v.001c.238.418 0 .706-.347.952.117-.276.217-.551.338-.823z"/><path d="m14.976 25.153c-.835-.046-1.851.777-2.507 1.186-.418.242-1.625.835-1.529 1.45.009.036.041.062.079.063h0c .547.021 1.312-.702 1.763-.965.702-.418 1.826-.773 2.335-1.425.035-.033.056-.079.056-.13 0-.099-.08-.18-.18-.18-.007 0-.013 0-.019.001h.001z"/><path d="m15.875 26.448c-.777.1-1.475.614-2.139 1.007-.71.377-1.306.878-1.779 1.48l-.009.012c-.006.01-.009.022-.009.035 0 .042.034.075.075.075.006 0 .012-.001.018-.002h-.001c.777-.28 1.449-.629 2.064-1.055l-.029.019c.639-.384 1.441-.664 1.959-1.212.1-.117.029-.384-.15-.359z"/></symbol><symbol id="icon-hat" viewBox="0 0 40 32"><path d="m40.125 11.384c-.012-.212-.187-.38-.401-.38-.017 0-.034.001-.051.003h.002c-.401-.498-1.312-.867-1.701-1.075-1.653-.917-3.079-1.913-4.394-3.036l.036.03c-3.029-2.512-6.143-5.152-9.843-6.601-1.858-.726-3.74-.076-5.553.449-2.103.614-4.269.971-6.372 1.605s-4.281 1.36-6.42 1.982c-1.128.325-2.255.642-3.399.915-.702.169-1.449.217-1.946.803-.037.04-.059.093-.059.152 0 .02.003.04.008.058v-.002c-.008.016-.013.034-.013.054s.005.038.014.055v-.001l.048.076c-.201 1.027.425 1.894 1.248 2.468.678.473 1.444.887 2.167 1.348.518.325 1.075.947 1.721 1.055-.126.105-.24.212-.347.327l-.002.002c-.558.61-.626 1.633-.726 2.408-.151.986-.236 2.123-.236 3.28 0 .209.003.418.008.626l-.001-.031c.048 1.172.229 2.408.173 3.611-.138.118-.258.249-.361.395l-.004.007c-.189.235-.304.537-.304.866 0 .627.417 1.157.988 1.327l.01.003h.06c-.718 1.164-1.251 2.526-1.518 3.98l-.011.073c-.185 1.027-.473 2.941.449 3.712.05.048.118.078.193.078.151 0 .273-.12.277-.27v0c0-.578-.209-1.144-.233-1.733-.001-.042-.001-.092-.001-.142 0-.693.081-1.366.234-2.012l-.012.059c.135-.644.312-1.206.537-1.744l-.023.062c-.116.602-.225 1.204-.325 1.786-.205 1.14-.369 2.616.401 3.579.132.165.365 0 .377-.157.048-.666-.116-1.328-.12-2.006.027-.792.137-1.545.321-2.268l-.016.074.024-.112c-.064 1.148-.301 2.512.072 3.567.027.081.102.138.191.138s.163-.057.19-.137v-.001c.063-.205.112-.447.135-.695l.001-.015c.007.34.078.662.203.956l-.006-.017c.027.044.075.073.13.073s.103-.029.13-.073v-.001c.53-.927.377-2.383.401-3.419s-.072-2.343-.598-3.326l.1.144c.356.565.619 1.227.749 1.936l.005.035c.317 1.513.157 3.122.345 4.655.004.094.081.169.176.169.062 0 .117-.032.148-.081v-.001c.486-.662.353-1.453.281-2.231-.084-.907-.068-1.806-.237-2.708-.08-.421-.53-1.954-1.164-2.54.138-.18.234-.399.268-.639l.001-.007c.088-.642-.401-1.689-1.091-1.886.257-1.89.068-3.832.152-5.73.044-.999.177-1.874.899-2.6l.092-.08h.024c.018.047.047.086.084.116l0 0c .602.494 1.204.971 1.842 1.444.181.754-.072 1.962-.12 2.52-.065.596-.102 1.286-.102 1.986 0 .376.011.749.032 1.119l-.002-.051c.092 1.428.1 3.046 1.204 4.081 1.204 1.099 3.126 1.605 4.634 2.099 1.665.535 3.598.907 5.596 1.039l.074.004c3.976.273 7.584-.903 11.083-2.712 1.102-.52 1.868-1.588 1.95-2.843l.001-.01c.037-.463.058-1.001.058-1.545 0-.647-.03-1.287-.088-1.918l.006.081c-.036-.851 0-1.705 0-2.556q.682-.181 1.372-.341c1.545-.361 3.066-.851 4.602-1.244 1.12-.289 1.276-1.176 1.28-2.147.003-.039.005-.085.005-.131 0-.076-.005-.15-.014-.223l.001.009zm-35.491 2.744c.042.008.09.012.138.012s.097-.004.143-.013l-.005.001c.118-.023.22-.052.319-.089l-.014.005c0 .036 0 .072 0 .108-.048.373-.08.742-.1 1.116l-.257.084c-.108.024-.203.06-.291.107l.006-.003c-.038.024-.07.049-.101.077l.001-.001c.024-.453.084-.931.16-1.404zm-.24 2.323c0-.253.028-.51.048-.77h.02c-.052 0 0 .04.032.048.034.016.073.029.114.036h.003c.035.005.075.007.116.007.084 0 .166-.011.243-.033l-.006.002.124-.028c0 .437 0 .879 0 1.316-.106.007-.204.031-.295.07l.006-.002-.385.157-.044.024c.012-.269.012-.542.024-.827zm.048 3.359c0-.225 0-.453 0-.678v0c .061.015.131.024.203.024.154 0 .298-.04.423-.111l-.004.002c-.022.289-.034.627-.034.967s.013.678.037 1.012l-.003-.045c-.092.017-.174.045-.25.083l.005-.002c-.055.026-.097.073-.116.131v.002c-.123.034-.229.078-.329.133l.008-.004c.039-.394.061-.852.061-1.316 0-.065 0-.13-.001-.195v.01zm.634-1.104c-.236.03-.45.093-.647.186l.013-.006c-.028-.429-.028-.831-.052-1.288h.04c.054.013.115.02.179.02.094 0 .184-.016.268-.046l-.006.002c.08-.02.149-.046.214-.079l-.006.003c0 .136 0 .273 0 .401.012.293.008.558 0 .823zm-.907 4.495c-.048-.108-.076-.233-.076-.365 0-.245.096-.467.253-.63l0 0c .152-.182.343-.326.56-.421l.01-.004c-.084.185-.16.377-.245.554-.136.309-.353.586-.502.879zm1.537 5.489c0-.502-.028-.999-.02-1.457 0-.321 0-.634 0-.947.062.433.097.932.097 1.44 0 .038 0 .077-.001.115v-.006c-.016.253-.044.558-.076.855zm.188-5.863c-.047.24-.195.438-.397.552l-.004.002c.056-.104.104-.209.157-.301.105-.176.19-.379.242-.595l.003-.015c.011.057.017.123.017.19 0 .059-.005.117-.014.173l.001-.006zm-.216-.85v0c-.019.011-.036.026-.048.044l0 0c-.181.277-.309.602-.473.891-.123.177-.231.379-.314.594l-.007.02c-.096-.002-.189-.015-.277-.038l.008.002-.12-.044c.214-.222.382-.49.489-.787l.005-.015c.137-.272.243-.587.302-.918l.003-.021h.084c.145.056.266.15.352.271l.002.002zm-.317-8.427c-.128.032-.261.108-.373.144-.085.033-.185.057-.288.068h-.005c.032-.181.06-.357.096-.538.045-.248.115-.469.208-.676l-.007.018q.313.044.626.072l.245.028c-.206.248-.376.537-.495.85l-.007.021zm.891-1.288c-.169 0-.337 0-.51-.028s-.373-.02-.562-.02c.348-.472.803-.845 1.331-1.087l.021-.009.032.028c.238.124.515.224.805.285l.021.004.116.032c-.481.207-.896.47-1.262.787l.006-.005zm.854-1.428c.333-.148.674-.281 1.015-.401.008.009.019.014.032.014s.024-.005.032-.014l0 0 .08-.028c.04.046.08.088.123.127l.001.001c.155.115.335.21.528.277l.014.004.233.08c-.309.092-.618.189-.919.297-.174-.083-.376-.148-.587-.186l-.015-.002c-.169-.068-.353-.124-.538-.169zm12.21-1.806c-.359.025-.684.064-1.003.121l.056-.008c-.166-.095-.36-.182-.562-.25l-.024-.007c-.202-.11-.376-.244-.525-.4l-.001-.001.65-.04c.352-.055.768-.093 1.19-.104h.014c.006.086.042.163.096.221l0 0c-.01.038-.015.082-.015.127 0 .131.047.251.124.344l-.001-.001zm-1.89.125l.189.12-.622.112-.802.124c-.176-.144-.377-.266-.594-.359l-.016-.006c-.205-.116-.401-.245-.594-.361.309-.06.614-.116.923-.169s.646-.084.971-.108c.116.271.306.491.544.643l.006.003zm-2.178.373l.165.108-1.525.241c-.208-.174-.446-.32-.704-.43l-.019-.007c-.1-.056-.217-.136-.337-.213l1.697-.349c.007.015.015.029.024.04l0 0c .204.232.433.433.686.602zm-2.332.341l.209.136-.827.144c-.01-.024-.027-.043-.048-.056h-.001c-.262-.141-.568-.238-.892-.272l-.011-.001c-.204-.05-.375-.105-.541-.17l.028.01c.469-.108.939-.209 1.404-.305.196.203.423.373.676.503l.014.007zm-1.54.457c-.461.096-.927.197-1.384.313-.275-.139-.594-.24-.931-.287l-.016-.002c-.104-.038-.194-.084-.278-.14l.005.003c.469-.148.943-.281 1.424-.401.338.241.739.418 1.172.506l.02.003zm11.949 15.697c-.667.078-1.439.122-2.222.122-.657 0-1.307-.031-1.948-.093l.082.006c-1.888-.182-3.621-.554-5.274-1.1l.17.049c-1.432-.445-3.579-.975-4.446-2.315-.469-.726-.401-1.782-.506-2.608-.054-.538-.085-1.163-.085-1.795 0-.34.009-.677.026-1.012l-.002.047c.103-.768.17-1.67.184-2.585v-.019l1.493 1.103c-.483.388-.915.772-1.326 1.178l.002-.002c-.012.013-.02.03-.02.05 0 .04.032.072.072.072.013 0 .025-.004.036-.01l0 0c .398-.242.741-.521 1.041-.84l.002-.003c.112-.108.229-.221.337-.341l.257.189.136.104c-.818.571-1.508 1.259-2.065 2.048l-.018.026c-.007.013-.012.028-.012.044 0 .049.04.088.088.088.016 0 .031-.004.044-.012l0 0c .523-.387.983-.801 1.402-1.253l.006-.006q.401-.401.803-.754l.546.401c-1.011.666-2.323 1.364-2.58 2.508-.001.006-.002.013-.002.02 0 .047.038.084.084.084.023 0 .043-.009.059-.024l0 0c .52-.537 1.062-1.042 1.628-1.518l.033-.027c.361-.273.718-.542 1.051-.843l.461.325c-1.168.71-2.379 1.605-3.037 2.741-.056.1.06.233.161.16.572-.432 1.079-.87 1.555-1.338l-.002.002c.502-.446 1.05-.877 1.623-1.274l.058-.038.289.185c-1.332.939-2.704 2.006-3.387 3.495-.044.096.076.209.156.12 1.106-1.222 2.272-2.336 3.515-3.362l.056-.045.594.345c-.721.462-1.347.945-1.928 1.478l.01-.009c-.746.662-1.681 1.42-2.038 2.383-.036.096.096.201.177.136.71-.642 1.364-1.297 1.985-1.983l.021-.024c.65-.622 1.336-1.228 2.046-1.79l.441.309c-.662.453-1.239.912-1.782 1.408l.012-.011c-.73.646-1.629 1.36-2.099 2.227-.01.017-.016.037-.016.058 0 .064.052.116.116.116.02 0 .04-.005.056-.015h-.001c.803-.433 1.404-1.204 2.054-1.834s1.272-1.204 1.906-1.778l.642.425c-.349.518-1.164 1.007-1.545 1.352-.803.73-1.83 1.348-2.283 2.375-.036.084.048.221.144.144.943-.718 1.802-1.577 2.676-2.379.496-.378.929-.8 1.305-1.27l.011-.015c.116.072.233.14.349.201-.62.664-1.265 1.279-1.945 1.855l-.033.027c-.626.562-1.424 1.204-1.673 2.042-.003.011-.005.024-.005.038 0 .084.068.152.152.152.041 0 .078-.016.105-.042l0 0c .702-.594 1.28-1.384 1.958-2.006.636-.574 1.203-1.199 1.705-1.876l.024-.034c.286.136.617.236.966.283l.017.002c-.544.672-1.113 1.274-1.724 1.83l-.013.012c-.654.618-1.477 1.164-1.978 1.918-.084.128.076.269.201.201.863-.477 1.605-1.304 2.303-2.006.598-.569 1.12-1.211 1.553-1.913l.024-.041h.024c.438-.017.853-.091 1.246-.214l-.034.009c-1.502 1.199-2.799 2.565-3.891 4.088l-.042.061c-.08.12.08.289.205.205.859-.606 1.493-1.505 2.195-2.279s1.581-1.509 2.287-2.331c.377-.132.746-.269 1.091-.365l.329-.096-.04.032-.851.722c-.638.57-1.276 1.136-1.906 1.713-1.059.983-2.239 1.974-2.997 3.21-.06.1.068.181.148.116 1.316-1.055 2.436-2.408 3.667-3.551.622-.582 1.24-1.172 1.85-1.766.185-.181.51-.421.75-.682l.851-.269c-.532.515-1.024 1.061-1.478 1.638l-.026.035c-1.272 1.553-2.929 2.861-4.013 4.558-.011.02-.018.043-.018.069 0 .078.063.14.14.14.024 0 .047-.006.067-.017h-.001c1.436-.955 2.512-2.572 3.639-3.86.802-.927 1.521-1.93 2.408-2.809.887-.297 1.762-.618 2.636-.947-1.007 1.184-2.223 2.175-3.29 3.306-1.123 1.204-2.488 2.584-3.11 4.129-.056.14.144.237.241.14.601-.673 1.188-1.405 1.736-2.168l.054-.079c.61-.762 1.268-1.485 1.926-2.207.963-1.055 2.143-1.986 2.809-3.262l1.473-.566c-.566.758-1.035 1.637-1.605 2.279-.923 1.055-1.918 2.05-2.861 3.09-.847.927-1.886 1.962-2.319 3.162-.06.169.169.273.285.165.835-.766 1.485-1.778 2.235-2.628.855-.967 1.749-1.898 2.608-2.861.549-.624 1.057-1.314 1.501-2.046l.036-.064c.314-.546.617-1.004.943-1.444l-.028.04q1.055-.401 2.111-.803l.401-.112c-.5.309-.921.694-1.26 1.144l-.008.012c-.698.802-1.34 1.681-2.054 2.496-.891 1.015-1.709 2.087-2.532 3.154s-1.958 2.171-2.54 3.411c-.005.015-.008.032-.008.049 0 .002 0 .005 0 .007v0zm1.368-.232c-.245.052-.49.1-.734.14.66-.649 1.256-1.361 1.778-2.126l.032-.049c.863-1.123 1.717-2.251 2.604-3.354.622-.774 1.288-1.497 1.862-2.311.514-.726 1.035-1.645 1.794-2.151 0 .578.02 1.156.024 1.733-1.116 1.304-2.227 2.616-3.346 3.916s-2.512 2.52-3.326 4.013c-.225.08-.453.136-.686.189zm6.87-3.05c-.308.351-.687.631-1.115.819l-.02.008c.35-.293.656-.62.92-.98l.011-.015c.273-.333.803-1.055.457-1.477-.028-.029-.068-.047-.112-.047-.03 0-.058.008-.082.023h.001c-.142.114-.248.269-.299.447l-.002.006c-.168.307-.365.57-.594.803l0 0c-.313.353-.947.742-.991 1.248 0 .102.083.185.185.185v0h .08l-.329.152q-.578.273-1.156.534c.181-.205.349-.401.53-.626.538-.626 1.087-1.24 1.605-1.878s1.352-1.408 1.18-2.259c-.018-.055-.069-.095-.13-.095-.048 0-.09.025-.114.062v.001c-.49.967-1.384 1.806-2.099 2.616s-1.693 1.605-2.006 2.624c-.425.173-.855.333-1.292.477 1.091-.987 2.006-2.247 2.953-3.346 1.047-1.173 2.009-2.469 2.851-3.847l.066-.117c0 .766 0 1.537 0 2.299.012.807.04 1.713-.498 2.387zm5.673-10.168c-2.989 1.204-6.143 2.006-9.229 2.809-2.692.722-5.393 1.348-8.001 2.335-.666.253-1.332.506-2.006.746-.2.075-.432.128-.673.148l-.01.001c-.005-.09-.041-.171-.097-.233l0 0c-.422-.402-.884-.771-1.375-1.1l-.037-.024c-.669-.519-1.422-1.018-2.211-1.461l-.092-.048c-1.011-.606-1.946-1.316-2.913-1.986-.883-.61-1.761-1.428-2.72-1.91.301-.124.606-.229.899-.321 1.452-.459 3.214-.862 5.019-1.131l.197-.024c1.745-.293 3.828-.357 5.489-1.063-.071.056-.117.143-.117.24 0 .005 0 .009 0 .014v-.001c0 .001 0 .003 0 .004 0 .126.069.237.171.296l.002.001c.429.189.967 0 1.376-.156.493-.142.893-.472 1.123-.905l.005-.01c.006-.023.01-.05.01-.078 0-.125-.072-.234-.176-.287l-.002-.001c-.267-.132-.576-.236-.902-.294l-.021-.003c-.017-.004-.036-.006-.056-.006s-.039.002-.058.006h.002c-.031-.04-.062-.075-.096-.108l0 0c-.201-.203-.48-.328-.788-.328-.233 0-.449.072-.628.194l.004-.002c-.634-.185-1.368.044-2.006.048-1.339.074-2.595.286-3.799.623l.124-.03c-2.271.522-4.578.859-6.725 1.814l-.301.136c-1.027-.774-2.171-1.408-3.254-2.099-1.019-.61-1.926-1.453-2.961-2.03.457-.373 1.204-.401 1.741-.53.762-.165 1.521-.361 2.271-.566 1.605-.437 3.162-.907 4.723-1.4 2.945-.931 5.918-1.605 8.9-2.375 1.485-.401 3.05-1.083 4.61-.782s2.905 1.276 4.237 2.054c2.556 1.505 4.711 3.491 7.026 5.325.919.73 1.93 1.316 2.877 2.006.746.542 1.693.782 2.359 1.441.152.156-1.697.967-1.91 1.051zm-16.916-3.936c-.116.07-.249.125-.392.159l-.009.002c-.032.009-.069.015-.108.015-.095 0-.182-.033-.25-.088l.001.001c-.044-.042-.075-.097-.088-.159v-.002l.08-.048c.041-.027.076-.056.108-.088l0 0 .092-.052.096-.024h.177l.136.044.06.032.056.036.044.044v.032s0 0 0 0l-.032.032c.1.008.032.064.028.064zm.3.445c.147-.083.26-.21.323-.364l.002-.005c.076.04.157.076.233.112-.16.109-.346.196-.544.253l-.014.003z"/><path d="m20.793 2.408c-1.573 1.023-3.539 1.284-5.244 1.982-2.357.956-4.283 1.885-6.144 2.916l.289-.147c-.06.032 0 .14.048.116 2.123-.803 4.113-1.918 6.207-2.785 1.637-.678 3.439-.911 4.883-2.006.032-.032.008-.108-.04-.076z"/><path d="m23.967 2.893c-1.715.438-3.185.955-4.593 1.584l.18-.072c-1.73.677-3.217 1.459-4.602 2.382l.087-.055c-.025.018-.041.048-.041.081 0 .055.045.1.1.1.015 0 .029-.003.042-.009h-.001c1.44-.626 2.809-1.42 4.245-2.066 1.481-.682 3.058-1.276 4.61-1.846.021-.007.035-.027.035-.049 0-.029-.023-.052-.052-.052-.004 0-.008 0-.012.001l0 0z"/><path d="m25.612 4.141c-1.605.935-3.391 1.493-4.943 2.592-.08.056-.032.213.072.169 1.015-.401 1.954-.951 2.929-1.441.666-.333 1.569-.57 2.074-1.156.015-.018.023-.042.023-.067 0-.06-.049-.108-.108-.108-.017 0-.034.004-.048.011z"/><path d="m26.724 5.593c-.923.803-2.448.766-3.21 1.729-.029.023-.048.058-.048.098 0 .069.056.124.124.124.029 0 .055-.01.076-.026l0 0c .606-.325 1.204-.614 1.842-.883.539-.191.984-.536 1.294-.982l.006-.009c.012-.028-.048-.084-.084-.052z"/><path d="m28.991 6.845c-1.363.678-2.481 1.319-3.56 2.014l.145-.088c-1.196.685-2.229 1.425-3.181 2.255l.023-.02c-.092.084.028.237.132.173 1.095-.658 2.163-1.356 3.25-2.006q.915-.562 1.818-1.14c.301-.193.598-.401.895-.59l.285-.213c.038-.024.063-.065.063-.112 0-.022-.005-.043-.015-.061v.001c.124 0 .092 0 .225-.056s.012-.181-.08-.157z"/><path d="m31.177 7.953c-1.541 1.087-3.334 1.83-4.963 2.785-1.946 1.14-3.944 2.283-5.682 3.74-.104.088.028.245.14.185 2.074-1.164 4.049-2.512 6.095-3.724.887-.526 1.762-1.055 2.684-1.517.734-.306 1.345-.784 1.802-1.386l.008-.011c.036-.036-.032-.104-.084-.072z"/><path d="m32.859 9.438c-.768.355-1.427.743-2.042 1.188l.035-.024c-.726.447-1.356.931-1.933 1.471l.007-.006c-.029.029-.046.069-.046.113 0 .089.072.161.16.161.029 0 .056-.008.079-.021h-.001c.747-.392 1.392-.829 1.982-1.329l-.015.013c.634-.465 1.264-.943 1.862-1.453.056-.06-.044-.14-.088-.112z"/></symbol><symbol id="icon-phone" viewBox="0 0 31 32"><path d="m23.096 32c-.403-.002-.799-.026-1.188-.07l.049.005s-7.407-.64-14.362-7.652c-6.805-6.748-7.529-13.769-7.529-14.249-.489-4.706 1.656-8.471 5.6-9.864.293-.101.63-.159.98-.159 1.269 0 2.36.761 2.842 1.852l.008.02 1.882 4.113c.165.368.261.798.261 1.25 0 .842-.333 1.605-.874 2.167l.001-.001-2.569 2.616c.245.753 1.148 2.824 4.461 6.099s5.308 4.179 6.108 4.461l2.513-2.513c.564-.565 1.344-.915 2.206-.915.51 0 .992.123 1.417.34l-.018-.008 4.828 2.428c1.034.521 1.731 1.575 1.731 2.791 0 .307-.044.603-.127.883l.006-.022c-1.205 4.085-4.235 6.428-8.226 6.428zm-16.432-30.118c-.132.001-.258.025-.375.068l.008-.002c-3.134 1.12-4.762 4.075-4.358 7.906v0c0 .066.574 6.72 6.984 13.073s13.176 7.106 13.176 7.106c3.652.386 6.334-1.449 7.388-5.035.027-.096.042-.207.042-.321 0-.487-.278-.909-.684-1.116l-.007-.003-4.819-2.428c-.163-.085-.355-.134-.56-.134-.34 0-.648.138-.871.36l-3.191 3.191h-.433c-.282 0-2.908-.339-7.661-5.101s-5.092-7.426-5.101-7.708v-.405l3.209-3.209c.222-.224.359-.533.359-.873 0-.189-.042-.367-.117-.527l.003.008-1.882-4.113c-.198-.428-.618-.722-1.109-.734h-.002z"/></symbol><symbol id="icon-login" viewBox="0 0 28 32"><path d="m6.774 12.554c0-.001 0-.002 0-.003 0-1.374.376-2.659 1.031-3.76l-.019.034 6.382 2.389 6.382-2.389c.647 1.077 1.03 2.377 1.03 3.767 0 4.088-3.314 7.403-7.403 7.403s-7.403-3.314-7.403-7.403c0-.013 0-.027 0-.04zm12.891 6.938c-1.499 1.155-3.403 1.851-5.47 1.851s-3.971-.696-5.491-1.867l.021.016c-4.993 2.119-8.481 6.878-8.724 12.479l-.001.03h28.362c-.239-5.625-3.716-10.382-8.605-12.473l-.093-.035zm-5.488-19.492l-13.675 5.105 4.44 1.659v1.732c-.203.105-.34.313-.34.553 0 .182.078.345.203.458l0 0v1.249h.1l-.556 5.716c-.001.01-.002.021-.002.032s.001.022.002.033v-.001c0 .273.447.483.912.465s.848-.255.811-.529l-.547-5.716h.091v-1.249c.123-.114.2-.276.2-.456 0-.243-.139-.453-.342-.554l-.004-.002v-1.532l1.741.647 6.947 2.598 6.947-2.598 6.746-2.507z"/></symbol><symbol id="icon-menu" viewBox="0 0 32 32"><path d="m0 0h32v6.4h-32z"/><path d="m0 12.8h32v6.4h-32z"/><path d="m0 25.6h32v6.4h-32z"/></symbol><symbol id="icon-name" viewBox="0 0 30 32"><path d="m30.127 32.009h-30.127v-.941c.321-2.3 1.498-4.278 3.193-5.635l.017-.013 5.187-3.267c.372-.254.832-.406 1.327-.406.452 0 .875.127 1.234.346l-.01-.006 3.964 2.372 3.916-2.485c.362-.24.807-.384 1.285-.384s.923.143 1.294.389l-.009-.005 5.329 3.389c1.774 1.375 3.012 3.369 3.391 5.653l.007.052zm-27.886-1.882h25.363c-.398-1.285-1.131-2.368-2.099-3.183l-.01-.008-5.112-3.399c-.067-.035-.146-.055-.231-.055-.115 0-.222.038-.307.103l.001-.001-4.924 3.013-4.933-2.956c-.073-.048-.163-.076-.259-.076s-.186.028-.261.077l.002-.001-5.15 3.286c-.97.827-1.695 1.914-2.068 3.154l-.012.047z"/><path d="m11.053 24.129c-.505-.019-.908-.433-.908-.941 0-.226.08-.433.212-.595l-.001.002c.439-.842.697-1.839.697-2.896 0-.028 0-.055-.001-.083v.004c-1.008-1.016-1.835-2.214-2.427-3.54l-.03-.076c-.302-.082-.565-.212-.798-.381l.007.005c-.794-.664-1.321-1.623-1.411-2.706l-.001-.014c-.057-.222-.09-.477-.09-.74 0-.681.221-1.31.595-1.82l-.006.009c.179-.194.391-.355.628-.474l.013-.006c0-1.412.169-4.463 2.015-6.279.297-.28.647-.509 1.032-.669l.023-.008 1.101-.48c.183-.76.471-1.429.854-2.033l-.016.027c.17-.262.461-.432.792-.432.234 0 .448.085.612.226l-.001-.001c.497.382 1.081.682 1.714.866l.037.009c1.622.505 2.999 1.402 4.07 2.581l.007.008c2.175 1.469 2.542 4.707 2.598 6.167.255.14.471.319.647.533l.003.004c.375.504.6 1.139.6 1.826 0 .251-.03.494-.086.728l.004-.021c-.09 1.098-.618 2.058-1.406 2.716l-.006.005c-.225.165-.489.294-.774.373l-.017.004c-.609 1.396-1.421 2.59-2.413 3.608l.003-.003c0 .024-.001.052-.001.081 0 1.054.261 2.048.723 2.919l-.016-.034c.115.154.184.348.184.559 0 .305-.145.576-.37.748l-.002.002c-.157.121-.356.193-.572.193-.292 0-.554-.133-.726-.342l-.001-.002c-.104-.132-1.026-1.375-1.12-4.491 0-.01-.001-.021-.001-.033 0-.264.108-.502.283-.673l0 0c1.078-.991 1.92-2.221 2.445-3.607l.021-.065c.116-.397.477-.682.905-.682.056 0 .111.005.165.014l-.006-.001c.198 0 .659-.329.866-1.591.113-.697 0-.941-.094-1.036-.045-.05-.102-.089-.167-.112l-.003-.001c-.52 0-.941-.421-.941-.941v0c0-1.12-.198-4.255-1.836-5.282-.075-.049-.14-.105-.197-.168l-.001-.001c-.879-1.042-2.032-1.826-3.347-2.245l-.051-.014c-.542-.183-.993-.374-1.428-.594l.063.029c-.104.258-.187.559-.233.873l-.003.022c-.037.342-.252.626-.55.76l-.006.002-1.61.734c-.189.075-.351.177-.491.303l.002-.001c-1.723 1.723-1.393 5.46-1.393 5.489.002.025.004.055.004.085 0 .52-.421.941-.941.941-.001 0-.003 0-.004 0h0c-.074.019-.136.063-.178.121l-.001.001c-.066.085-.198.348-.085 1.026.207 1.28.65 1.572.941 1.582.033-.004.072-.007.111-.007.428 0 .79.286.904.678l.002.007c.542 1.454 1.374 2.689 2.433 3.686l.005.005c.175.171.283.409.283.673 0 .012 0 .023-.001.035v-.002c-.094 3.116-1.017 4.359-1.12 4.491-.168.217-.424.357-.714.367h-.002z"/></symbol><symbol id="icon-university" viewBox="0 0 147 32"><path d="m146.63 27.474l.685-3.889c.009-.036.014-.078.014-.121 0-.285-.231-.517-.517-.517-.008 0-.016 0-.024.001h.001-1.382c0-.174 0-.352 0-.535-.001-6.597-3.867-12.291-9.456-14.941l-.1-.043-2.554 4.424c-.053.082-.084.181-.084.289 0 .232.148.43.354.504l.004.001c3.351 1.373 6.131 5.241 6.131 9.764 0 .18-.021.355-.033.535h-11.089c-.375.003-.686.275-.751.632l-.001.005-.685 3.889c-.01.037-.015.08-.015.124 0 .284.23.514.514.514.01 0 .019 0 .028-.001h-.001 18.203c.375-.003.686-.275.751-.632l.001-.005z"/><path d="m118.314 10.819c-2.834 2.798-4.674 6.596-4.947 10.821l-.003.049h5.088c.001 0 .002 0 .003 0 .363 0 .661-.277.694-.631v-.003c.204-2.143 1.304-4.246 2.84-5.854z"/><path d="m120.865 4.421c-.142-.165-.351-.269-.585-.269-.142 0-.275.039-.39.106l.004-.002-3.42 1.974c-.171.087-.286.261-.286.462 0 .135.052.257.136.349l0 0 12.201 14.539c.142.165.351.269.585.269.142 0 .275-.039.39-.106l-.004.002 3.42-1.974c.172-.086.288-.26.288-.462 0-.135-.052-.258-.138-.35l0 0z"/><path d="m135.838 1.998l-1.298-.748.301-.496c.038-.065.06-.143.06-.227 0-.183-.107-.341-.262-.415l-.003-.001-.06-.042c-.068-.042-.151-.068-.24-.068-.173 0-.323.095-.402.236l-.001.002-.301.496-.147-.084c-.093-.057-.205-.091-.325-.091-.234 0-.438.129-.545.319l-.002.003-5.109 8.875c-.057.092-.09.204-.09.323 0 .235.13.44.321.546l.003.002.147.084-.301.496c-.042.068-.068.151-.068.24 0 .173.095.323.237.402l.002.001.075.042c.068.042.15.067.239.067.174 0 .325-.096.403-.239l.001-.002.301-.496 1.298.748-.301.496c-.042.068-.066.151-.066.239 0 .173.095.324.235.403l.002.001.075.042c.068.042.151.068.24.068.173 0 .323-.095.402-.236l.001-.002.301-.496.147.084c.092.057.204.09.323.09.235 0 .44-.13.547-.321l.002-.003 5.124-8.875c.057-.092.091-.205.091-.325 0-.234-.129-.438-.319-.545l-.003-.002-.147-.084.301-.496c.042-.068.068-.151.068-.24 0-.173-.095-.323-.237-.402l-.002-.001-.075-.045c-.068-.042-.151-.068-.24-.068-.173 0-.323.095-.402.236l-.001.002z"/><path d="m90.251 11.645h-.826v-3.636q0-1.148-1.037-1.148h-.697v.228q0 .754.781.754h.301v.655h-.367c-.04.003-.087.005-.134.005-.387 0-.746-.125-1.037-.336l.005.004c-.255-.261-.412-.619-.412-1.013 0-.046.002-.091.006-.135v.006-.932h1.611q1.803 0 1.803 1.992z"/><path d="m91.961 10.08h-.826v-3.982h.826z"/><path d="m96.878 10.08h-.82v-1.965c0-.011 0-.024 0-.037 0-.188-.025-.37-.073-.542l.003.014c-.042-.151-.117-.282-.217-.388l0 0c-.101-.102-.226-.18-.366-.224l-.006-.002c-.152-.046-.326-.073-.506-.073-.013 0-.026 0-.04 0h .002-.775v1.851c.003.034.004.075.004.115 0 .334-.098.646-.266.907l.004-.007c-.173.241-.452.397-.767.397-.004 0-.008 0-.011 0h .001c-.006 0-.013 0-.02 0-.154 0-.299-.043-.423-.117l.004.002v-.721h.03c.051.041.117.066.188.066.003 0 .005 0 .008 0h0q .439 0 .439-.601v-2.66h1.647q1.962 0 1.962 1.992z"/><path d="m98.479 8.478h-.826v-2.38h.826z"/><path d="m103.654 7.793c.003.044.005.095.005.146 0 .642-.272 1.22-.707 1.626l-.001.001c-.387.321-.889.516-1.437.516-.031 0-.061-.001-.091-.002h.004-2.08v-3.982h.82v2.248q.875-.21.875-1.313v-.935h.835v.814c.002.037.004.08.004.124 0 .399-.113.771-.309 1.087l.005-.009c-.188.243-.452.419-.757.491l-.009.002h-.625v.76h1.235c.01 0 .022 0 .034 0 .212 0 .416-.032.609-.091l-.015.004c.175-.054.325-.148.445-.27l0 0c .12-.13.212-.288.262-.464l.002-.008c.056-.193.088-.415.088-.644 0-.019 0-.038-.001-.056v.003-1.743h.82z"/><path d="m107.829 10.08h-3.483v-.763h1.016c.031.002.066.004.102.004.371 0 .708-.141.963-.371l-.001.001c.2-.222.323-.518.323-.842 0-.021-.001-.042-.002-.062v.003c.001-.02.002-.043.002-.066 0-.349-.152-.662-.394-.877l-.001-.001c-.244-.188-.554-.302-.89-.302-.022 0-.044 0-.066.001h.003c-.007 0-.016 0-.024 0-.342 0-.661.095-.933.26l.008-.005h-.051v-.796c.305-.138.66-.218 1.035-.218.052 0 .104.002.156.005h-.007c.019-.001.042-.001.064-.001.499 0 .956.177 1.312.473l-.003-.003c.37.313.603.777.603 1.296 0 .028-.001.056-.002.084v-.004c0 .006 0 .013 0 .02 0 .325-.088.629-.242.89l.004-.008c-.065.114-.14.213-.226.301l0 0c-.082.082-.174.156-.273.219l-.006.004h1.007z"/><path d="m2.419 25.016h-2.419v-10.726h2.419z"/><path d="m10.185 17.292c0 .001 0 .002 0 .003 0 1.053-.305 2.034-.83 2.861l.013-.022c-.509.744-1.146 1.36-1.885 1.83l-.026.016h-2.648v-.307c.878-.562 1.63-1.222 2.272-1.978l.012-.014c.417-.522.669-1.191.669-1.919 0-.039-.001-.077-.002-.115v.006-1.503h-4.153v-3.717h2.419v1.872h4.147z"/><path d="m14.107 18.894h-2.419v-4.604h2.419z"/><path d="m23.543 21.992h-2.548l-2.906-3.961q-.418.243-.418 1.202v2.765h-2.344v-2.302q0-1.932 1.479-2.419h.652l-2.254-2.765v-.222h2.624l2.591 3.351q.388-.316.388-1.373v-1.977h2.335v1.638q0 2.065-1.584 2.506h-.562l2.548 3.348z"/><path d="m28.114 18.966h-3.772v-1.629h3.772z"/><path d="m35.715 21.992h-2.419v-3.63c0-.016 0-.034 0-.053 0-.334-.053-.656-.151-.958l.006.022c-.09-.277-.229-.516-.41-.717l.002.002c-.173-.186-.386-.333-.626-.426l-.011-.004c-.237-.091-.511-.144-.798-.144-.01 0-.02 0-.03 0h .002c-.039-.002-.085-.003-.132-.003-.71 0-1.367.226-1.904.61l.01-.007h-.102v-1.959q.826-.517 2.609-.517c.064-.004.139-.006.215-.006.993 0 1.9.369 2.591.977l-.004-.004q1.16 1.076 1.16 3.053z"/><path d="m44.087 21.992h-7.122v-1.803h2.047q2.176 0 2.176-2.023c.002-.032.003-.071.003-.109 0-.599-.264-1.137-.683-1.503l-.002-.002c-.375-.304-.858-.488-1.384-.488-.023 0-.046 0-.068.001h.003c-.016 0-.036 0-.055 0-.68 0-1.314.198-1.846.541l.014-.008h-.114v-1.959c.761-.28 1.64-.443 2.556-.443.043 0 .085 0 .128.001h-.006c.043-.002.094-.003.144-.003.946 0 1.817.325 2.506.869l-.009-.007c.713.61 1.162 1.511 1.162 2.517 0 .624-.173 1.208-.473 1.706l.008-.015c-.226.401-.554.721-.949.931l-.013.006h1.986z"/><path d="m56.544 21.992h-1.47v-3.778c0-.022.001-.047.001-.073 0-.361-.045-.712-.13-1.047l.006.029c-.073-.291-.208-.543-.39-.754l.002.002c-.178-.2-.405-.353-.662-.441l-.011-.003c-.273-.09-.587-.142-.912-.142-.022 0-.043 0-.064.001h.003-1.388v3.579q0 1.292-.466 1.962c-.298.463-.811.766-1.394.766h0c-.009 0-.02 0-.031 0-.281 0-.542-.083-.761-.226l.005.003v-1.394h.054c.087.079.203.127.331.127.006 0 .012 0 .019 0h-.001q.787 0 .787-1.166v-5.148h2.954q3.516 0 3.516 3.85z"/><path d="m65.232 18.113c.001.038.002.083.002.128 0 1.063-.404 2.031-1.066 2.761l.003-.003c-.632.703-1.544 1.143-2.56 1.143-.024 0-.047 0-.071-.001h.004c-.034.001-.075.002-.115.002-1.044 0-1.972-.502-2.554-1.277l-.006-.008q-.923-1.202-.923-3.128v-3.438h1.485v3.441q0 1.379.535 2.137c.331.463.866.761 1.471.761.039 0 .077-.001.115-.004h-.005c.028.001.06.002.093.002.61 0 1.158-.271 1.527-.7l.002-.003c.376-.464.603-1.062.603-1.713 0-.038-.001-.076-.002-.113v.005c.002-.037.003-.079.003-.122 0-.594-.191-1.143-.516-1.589l.005.008c-.289-.392-.749-.643-1.268-.643-.006 0-.013 0-.019 0h .001c-.015-.001-.033-.001-.05-.001-.498 0-.941.24-1.218.61l-.003.004h-.123v-1.644c.404-.296.911-.474 1.459-.474.038 0 .075.001.112.002h-.005c.014 0 .03 0 .046 0 .829 0 1.571.368 2.073.95l.003.004q.962 1.076.962 2.906z"/><path d="m67.874 18.894h-1.485v-4.604h1.485z"/><path d="m76.397 18.23c.001.038.002.084.002.129 0 1.039-.407 1.982-1.071 2.68l.002-.002c-.627.681-1.522 1.106-2.517 1.106-.014 0-.028 0-.043 0h .002c-.04.002-.086.003-.133.003-1.028 0-1.939-.497-2.508-1.263l-.006-.008c-.546-.77-.873-1.728-.873-2.763 0-.074.002-.147.005-.22v.01-3.606h3.249c.05-.002.109-.004.168-.004.989 0 1.893.362 2.587.961l-.005-.004q1.142 1.034 1.142 2.981zm-1.47.087c.003-.044.004-.096.004-.148 0-.683-.273-1.303-.717-1.755l0 0c-.43-.385-1.001-.621-1.626-.621-.035 0-.069.001-.103.002h.005-1.779v2.236c-.004.061-.007.132-.007.204 0 .678.229 1.303.613 1.801l-.005-.007c.352.4.864.65 1.435.65.024 0 .047 0 .071-.001h-.003c.006 0 .012 0 .019 0 .577 0 1.098-.243 1.465-.633l.001-.001c.391-.42.631-.985.631-1.605 0-.038-.001-.075-.003-.113v.005z"/><path d="m82.672 21.992h-1.485v-3.976c.002-.035.003-.075.003-.116 0-.604-.213-1.159-.568-1.593l.004.004c-.353-.4-.866-.652-1.439-.652-.035 0-.07.001-.105.003h.005c-.052-.004-.113-.006-.175-.006-.59 0-1.132.209-1.555.557l.004-.003h-.081v-1.587q.649-.457 1.908-.457c.045-.002.097-.003.15-.003.881 0 1.681.345 2.274.906l-.001-.001q1.061 1.01 1.061 2.987z"/><path d="m90.08 21.992h-6.233v-1.485h1.803q1.259 0 1.908-.709c.363-.438.584-1.005.584-1.625 0-.05-.001-.1-.004-.149v.007c.002-.036.003-.077.003-.119 0-.66-.271-1.256-.709-1.683l0 0c-.43-.359-.988-.577-1.597-.577-.04 0-.079.001-.118.003h.006c-.01 0-.022 0-.033 0-.621 0-1.199.184-1.683.5l.012-.007h-.09v-1.533q.712-.412 2.122-.412c.032-.001.069-.002.107-.002.908 0 1.735.343 2.361.906l-.003-.003c.676.623 1.098 1.512 1.098 2.5 0 .057-.001.114-.004.17v-.008c0 .011 0 .024 0 .038 0 .621-.157 1.205-.433 1.715l.009-.019c-.117.221-.252.411-.408.582l.002-.002c-.149.161-.313.304-.492.426l-.01.006h1.803z"/><path d="m92.592 18.894h-1.485v-4.604h1.485z"/><path d="m96.703 21.992h-2.939v-1.503h1.47v-3.411c0-.014.001-.031.001-.048 0-.317-.092-.612-.251-.86l.004.006c-.137-.227-.381-.376-.661-.376-.005 0-.011 0-.016 0h .001c-.023-.002-.051-.004-.078-.004-.135 0-.264.031-.378.087l.005-.002v-1.503c.183-.06.394-.095.613-.095.062 0 .122.003.183.008l-.008-.001c.004 0 .008 0 .012 0 .529 0 1.007.217 1.349.568l0 0c .434.475.699 1.111.699 1.808 0 .057-.002.113-.005.168v-.008z"/><path d="m99.796 21.992h-1.485v-7.702h1.485z"/><path d="m107.829 21.992h-1.656l-2.915-4.225q-.712.421-.712 1.779v2.449h-1.518v-2.161q0-1.941 1.28-2.521h.643l-2.02-2.87v-.162h1.593l2.579 3.651q.664-.427.664-1.803v-1.839h1.554v1.533q0 2.044-1.376 2.618h-.535l2.404 3.444z"/><path d="m2.891 32h-.739v-3.122c.001-.017.001-.037.001-.056 0-.304-.106-.583-.283-.802l.002.002c-.173-.207-.431-.338-.719-.338-.017 0-.033 0-.049.001h.002c-.015-.001-.032-.001-.05-.001-.304 0-.584.1-.81.268l.004-.003h-.042v-.742c.234-.134.515-.213.814-.213.031 0 .061.001.092.002h-.004c.018-.001.04-.001.061-.001.449 0 .859.169 1.169.447l-.002-.001c.337.343.545.813.545 1.331 0 .042-.001.084-.004.126v-.006z"/><path d="m6.173 28.565c.001.018.001.04.001.062 0 .46-.15.884-.405 1.227l.004-.006c-.224.293-.486.543-.782.747l-.011.007h-.872v-.105c.396-.247.733-.547 1.013-.894l.006-.008c.188-.248.301-.562.301-.902 0-.011 0-.023 0-.034v.002-.902h-2.011v-1.644h.739v.932h2.017z"/><path d="m7.633 29.172h-.739v-2.125h.739z"/><path d="m11.312 30.603h-3.107v-.685h.902c.027.002.059.003.091.003.331 0 .633-.126.86-.332l-.001.001c.187-.201.301-.47.301-.767 0-.016 0-.031-.001-.047v.002c0-.012.001-.025.001-.039 0-.315-.139-.598-.36-.79l-.001-.001c-.217-.166-.492-.266-.79-.266-.021 0-.042 0-.063.002h.003c-.005 0-.012 0-.018 0-.306 0-.593.085-.837.233l.007-.004h-.045v-.721c.272-.122.589-.194.922-.194.05 0 .099.002.148.005h-.007c.01 0 .022 0 .035 0 .445 0 .853.158 1.171.421l-.003-.003c.334.278.546.693.546 1.158 0 .025-.001.05-.002.074v-.003c0 .004 0 .009 0 .015 0 .289-.078.56-.214.792l.004-.007c-.058.102-.125.19-.202.268l0 0c-.074.074-.155.139-.244.195l-.006.003h.902z"/><path d="m15.763 28.55c.003.039.004.084.004.13 0 .573-.243 1.09-.631 1.452l-.001.001c-.346.287-.795.461-1.284.461-.026 0-.052 0-.078-.001h.004-1.857v-3.546h.733v2.008q.781-.186.781-1.172v-.835h.733v.739c.001.026.002.057.002.088 0 .357-.101.689-.277.971l.005-.008c-.165.215-.397.371-.665.437l-.008.002h-.571v.679h1.103c.012 0 .026 0 .039 0 .186 0 .366-.028.536-.079l-.013.003c.161-.047.299-.132.409-.243l0 0c .108-.116.19-.259.236-.416l.002-.007c.041-.158.065-.339.065-.526 0-.034-.001-.067-.002-.101v.005-1.545h.733z"/><path d="m19.489 30.603h-3.11v-.685h.902c.027.002.059.003.091.003.331 0 .633-.126.86-.332l-.001.001c.187-.201.301-.47.301-.767 0-.016 0-.031-.001-.047v.002c0-.012.001-.025.001-.039 0-.315-.139-.598-.36-.79l-.001-.001c-.217-.166-.492-.266-.79-.266-.021 0-.042 0-.063.002h.003c-.005 0-.012 0-.018 0-.306 0-.593.085-.837.233l.007-.004h-.045v-.721c.271-.122.588-.193.921-.193.047 0 .094.001.14.004h-.006c.017-.001.038-.001.058-.001.445 0 .853.158 1.171.421l-.003-.002c.334.278.546.693.546 1.158 0 .025-.001.05-.002.074v-.003c0 .004 0 .009 0 .015 0 .289-.078.56-.214.792l.004-.007c-.058.102-.125.19-.202.268l0 0c-.074.074-.155.139-.244.195l-.006.003h.902z"/><path d="m25.202 30.603h-.733v-1.752c0-.012 0-.025 0-.039 0-.166-.022-.326-.063-.478l.003.013c-.037-.136-.103-.253-.193-.349l0 0c-.09-.092-.202-.161-.328-.2l-.006-.001c-.137-.042-.294-.066-.457-.066-.011 0-.021 0-.032 0h .002-.691v1.65c.002.029.003.062.003.096 0 .299-.087.578-.238.812l.004-.006c-.152.225-.406.371-.694.373h0c-.005 0-.011 0-.016 0-.138 0-.267-.038-.378-.104l.003.002v-.646h.027c.044.036.101.057.162.057.004 0 .008 0 .013 0h-.001q.391 0 .391-.538v-2.377h1.461q1.752 0 1.752 1.779z"/><path d="m26.729 30.603h-.739v-3.555h.739z"/><path d="m31.225 28.823c.002.028.003.062.003.095 0 .5-.203.952-.531 1.278l0 0c-.277.282-.662.456-1.088.457h0c-.029.002-.062.003-.096.003-.256 0-.498-.06-.712-.166l.009.004v-.715h.06c.154.128.354.205.572.205.01 0 .02 0 .03 0h-.001c.013.001.029.001.044.001.256 0 .489-.099.662-.26l-.001.001c.2-.207.324-.489.324-.8 0-.025-.001-.05-.002-.075v.003c.001-.015.001-.032.001-.049 0-.302-.114-.577-.302-.785l.001.001c-.185-.187-.442-.302-.725-.302-.021 0-.041.001-.062.002h.003c-.009 0-.019 0-.03 0-.309 0-.587.134-.778.348l-.001.001c-.197.228-.317.527-.317.855 0 .024.001.047.002.071v-.003 1.626h-.739v-3.57h.739v.7c.253-.437.719-.726 1.252-.726.024 0 .047.001.071.002h-.003c.008 0 .018 0 .028 0 .449 0 .852.197 1.128.509l.001.002c.286.324.461.753.461 1.222 0 .023 0 .047-.001.07v-.003z"/><path d="m34.386 28.565c.001.018.001.04.001.062 0 .46-.15.884-.405 1.227l.004-.006c-.224.293-.486.543-.782.747l-.011.007h-.872v-.105c.396-.247.733-.547 1.013-.894l.006-.008c.188-.248.301-.562.301-.902 0-.011 0-.023 0-.034v.002-.902h-2.011v-1.644h.739v.932h2.017z"/><path d="m35.943 30.603h-.739v-3.555h.739z"/><path d="m39.579 28.511c.002.035.003.076.003.116 0 .552-.219 1.052-.575 1.42l.001-.001c-.384.347-.895.56-1.456.56-.045 0-.09-.001-.134-.004h.006-.844v-.691h.902l-.902-2.864h.805l.781 2.789q.664-.186.664-1.202v-1.587h.739z"/><path d="m45.241 30.603h-3.306v-3.555h1.551q1.743 0 1.743 1.779zm-.733-.68v-1.133c.003-.032.005-.07.005-.108 0-.268-.095-.514-.253-.705l.002.002c-.179-.15-.411-.241-.665-.241-.031 0-.063.001-.093.004h.004-.832v2.185z"/><path d="m46.672 29.172h-.739v-2.125h.739z"/><path d="m49.905 30.603h-.739v-1.836c.001-.015.001-.032.001-.05 0-.284-.106-.542-.282-.738l.001.001c-.18-.186-.432-.302-.711-.302-.019 0-.039.001-.058.002h.003c-.027-.002-.059-.003-.091-.003-.29 0-.557.096-.772.258l.003-.002h-.042v-.73c.242-.135.531-.214.838-.214.039 0 .078.001.117.004h-.005c.025-.001.053-.002.082-.002.429 0 .821.157 1.122.416l-.002-.002c.329.318.533.763.533 1.256 0 .043-.002.086-.005.129v-.006z"/><path d="m53.593 30.603h-3.104v-.685h.902c.027.002.059.003.091.003.331 0 .633-.126.86-.332l-.001.001c.187-.201.301-.47.301-.767 0-.016 0-.031-.001-.047v.002c.001-.017.002-.038.002-.058 0-.311-.136-.591-.352-.783l-.001-.001c-.217-.166-.492-.266-.79-.266-.021 0-.042 0-.063.002h.003c-.005 0-.012 0-.018 0-.306 0-.593.085-.837.233l.007-.004h-.045v-.709c.271-.122.588-.193.921-.193.047 0 .094.001.14.004h-.006c.017-.001.038-.001.058-.001.445 0 .853.158 1.171.421l-.003-.002c.334.278.546.693.546 1.158 0 .025-.001.05-.002.074v-.003c0 .004 0 .009 0 .015 0 .289-.078.56-.214.792l.004-.007c-.058.102-.125.19-.202.268l0 0c-.074.074-.155.139-.244.195l-.006.003h.902z"/><path d="m57.494 30.603h-.733v-1.803q0-1.049-.998-1.049h-.823v2.861h-.739v-3.564h1.551q1.743 0 1.743 1.779z"/><path d="m61.956 28.823c.002.028.002.062.002.095 0 .5-.203.952-.531 1.278l0 0c-.276.277-.658.448-1.08.448-.004 0-.008 0-.011 0h .001c-.029.002-.062.003-.096.003-.256 0-.498-.06-.712-.166l.009.004v-.706h.06c.154.128.354.205.572.205.01 0 .02 0 .03 0h-.001c.013.001.029.001.044.001.256 0 .489-.099.662-.26l-.001.001c.195-.206.316-.485.316-.792 0-.029-.001-.058-.003-.087v.004c.001-.015.001-.032.001-.049 0-.302-.114-.577-.302-.785l.001.001c-.185-.187-.442-.302-.725-.302-.021 0-.041.001-.062.002h.003c-.009 0-.019 0-.03 0-.309 0-.587.134-.778.348l-.001.001c-.197.228-.317.527-.317.855 0 .024.001.047.002.071v-.003 1.626h-.739v-3.567h.739v.7c.253-.437.719-.726 1.252-.726.024 0 .047.001.071.002h-.003c.008 0 .018 0 .028 0 .449 0 .852.197 1.128.509l.001.002c.293.326.473.76.473 1.236 0 .019 0 .038-.001.056v-.003z"/></symbol></defs></svg>
