<svg enable-background="new 0 0 210.9 206.4" viewBox="0 0 210.9 206.4" xmlns="http://www.w3.org/2000/svg"><path d="m25.2 24.1c0 0 33.9-29 38-22l-22.3 19c1.2 2 23.6-19.5 26.1-15.1 0 0-17.6 14.4-17.2 15 0 0 33.6-20.7 34.1-19.7 4.6 7.9-31.5 17.4-27.5 24.3.6 1.1 31.2-22.5 33.1-19.1l-26.6 19.2c0 0 28.1-29.2 33.8-19.5 2.4 4.2-18.6 11-15.9 15.5l34.8-20.1-34.6 23.9c4.5 7.7 31.8-29.4 36.6-21.1 1 1.7-23.3 20.4-23.1 20.6 0 0 31.1-25.2 34.2-19.8l-20 15.7c0 0 30.9-20.6 32.1-18.5 0 0-20.6 18.5-19.9 19.8l29.5-17.2-19.8 20.9c0 0 35.5-25 37.4-21.6 4.2 7.3-21.9 19.4-21.9 19.4l35.6-20.6c3 5.2-21.6 20.6-21.6 20.6s32.9-29.7 37.6-21.6c4.3 7.5-26.4 23.8-26.4 23.8 2.6 4.5 30.9-22.7 33-19l-14.6 18.1c.5.9 19.4-11.2 19.4-11.2 3 5.2-21 16.2-20.3 17.4.7 1.3 18.4-10.6 18.4-10.6s-25 13.9-21.9 19.3l22.5-13c2.3 4-18.8 16-18.8 16 1.2 2 13.1-7.6 13.1-7.5l-19.4 17.4c0 0 23.8-18.1 25.7-14.8 0 0-19.4 16.7-19.1 17.2 0 0 8.4-11.7 11.4-6.6l-15.6 14.5c1.8 3.1 16.6-11 17.2-9.9 2 3.5-17.9 14.8-16.5 17.3 2.7 4.7 17.2-9.9 17.2-9.9s-22.4 19.5-21 21.9l22.5-13c2.8 4.8-17.5 14.3-16.5 16.1.4.7 18.9-10.9 18.9-10.9.5.9-18.6 19.1-18.6 19.1 1.9 3.4 11.8-11.4 13.8-8 2.2 3.9-17.4 13.7-17.4 13.7 2.9 5.1 17.8-17.2 20.8-12 1.2 2-24.7 20.4-24.3 21 0 0 23.6-13.8 23.7-13.7 0 0-15.8 16.4-15.6 16.7 0 0 20.7-12.6 21-12.1l-21.7 19.6c2.8 4.8 19.6-11.3 19.6-11.3.7 1.2-22.2 20-22.1 20.1 1.4 2.4 18.6-10.8 18.6-10.8l-16 14.6c0 0 10.3-12.1 12.9-7.5 0 0-22.6 11.7-20.2 15.8 0 0 22.9-16.3 24.2-14l-22.5 18.3 20.1-11.6c0 0-15.4 11.8-14.4 13.6 2.2 3.8 16.3-15.4 18.9-10.9l-18.6 14.4c.1.1 10.9-6.8 11.1-6.4 0 0-19.2 15.4-18.7 16.3.3.5 20.8-13.5 21.4-12.4 1.4 2.4-21.8 15.7-21.6 16.1 1.5 2.5 24.7-21.8 28-16.2 4.3 7.4-23.2 20.8-23.2 20.8s16.1-11 16.8-9.7c1.4 2.4-18.9 10.7-16.4 15 0 0 21.5-14.6 22.4-12.9 0 0-28.7 19.8-26.2 24.1 1.4 2.5 21.4-12.4 21.4-12.4"/><path d="m10.8 7.9c0 0 4.7-4.8 5.6-3.2.9 1.5-12.3 11-12 11.6 2.5 4.1 18.9-11 18.9-11s-18.3 11.4-16.7 14.2l29.1-16.8c2.5 4.4-32.8 26.1-32.8 26.1l47.7-27.6-47.6 33.4 55.2-31.9c5.5 9.6-58 24.2-49.8 38.3 0 0 15.9-16.8 19.2-11.1 1.4 2.6-25.6 24.2-25.6 24.2 1 1.8 25-14.4 25-14.4 2.6 4.6-27.8 14.3-24.6 19.9 3 5.2 19.8-13.6 20.7-12l-22.2 22.1c0 0 17.9-17 20.8-12 .5.8-14.9 9.3-13 12.6l20.9-12c4.4 7.7-24 23.5-24 23.5 1.8 3 19.1-11 19.1-11s-18.7 12.6-16.4 16.6c2.1 3.6 18.3-12.7 19.2-11.1 0 0-24 18.5-23.6 19.2l21.5-12.5c1.8 3.1-24.7 18.4-24.7 18.4.8 1.4 24.2-20.5 27-15.6l-26 24.7 21-12.1c2.3 3.8-16.2 15-14.7 17.7 0 0 17.4-12.3 18.4-10.6l-21 16c1.1 1.8 15.3-9.7 15.7-9.1l-12.1 16.4c.8 1.3 12.6-7.3 12.6-7.3 1.3 2.2-12.4 14.3-12.1 14.8 1.8 3.1 17.9-16.4 20.5-11.9 4.3 7.4-26.6 21.6-26.6 21.6l23.2-13.4-24.7 21.4c2.6 4.5 19.5-11.3 19.5-11.3 3.3 5.6-19.1 13.6-17.9 15.6 3 5.3 17.9-10.3 17.9-10.3s-15.9 10.6-14.8 12.4c0 0 21.5-13.5 22-12.7l-26.3 23.7 22.3-12.9c2.9 5-16.9 13.2-16.2 14.3l19.2-11.1-24.8 19.9 21.3-12.3c2.5 4.4-19.2 14.2-18.2 15.8l23.3-13.5c4.4 7.7-28.4 15.5-25.8 20 0 0 22.4-18.1 24.6-14.2l-19.3 20.5c1.4 2.5 26.9-15.5 26.9-15.5 1.9 3.3-17.7 19.7-17.7 19.7 4 7 26.8-27.4 32-18.5 2.3 3.9-19.7 17.9-18.8 19.3l32.5-18.8c2.4 4.2-22.7 19.4-22.7 19.4 1.5 2.6 24.3-25.8 29.4-17 0 0-10.8 12.5-9.5 14.9 4.5 7.8 26.3-22.4 29.4-17 0 0-28.3 20.8-28.1 21.3 0 0 32.6-27.1 36.2-20.9 1.7 2.9-22.1 13.9-20.1 17.3.6 1 30.9-19.6 31.7-18.3.4.6-27.1 19.5-27.1 19.5 5.8 10 31.7-18.3 31.7-18.3 2.3 3.9-20.6 18.8-20.6 18.8s34.3-20.7 34.7-20c0 0-28.4 10.2-24.3 17.3l29.7-17.1c2.5 4.3-23.7 16.8-21.6 20.4 0 0 31.5-29.7 36.5-21.1 0 0-18.4 17.1-17.6 18.4l27.6-16-17.3 15.6c0 0 26.6-19.5 28.4-16.4 0 0-18.8 13.1-15.9 18.1 4 7 47.3-27.3 47.3-27.3l-32.1 25.6 33.2-19.1c1 1.7-33.2 19.9-31.5 22.7 0 0 27.2-27.5 32.3-18.7 1.1 1.9-16.8 13.2-15.5 15.5.5.9 15.6-9 15.6-9 1.4 2.4-7.3 9-7.3 9 .8 1.4 1.7-3.1 2.6-1.5"/></svg>